<svg width="201" height="61" viewBox="0 0 201 61" fill="none" xmlns="http://www.w3.org/2000/svg">
<g clip-path="url(#clip0_18_470)">
<path d="M124.669 47.3946C113.002 55.9937 96.0924 60.5816 81.5333 60.5816C61.1192 60.5816 42.7411 53.0312 28.8375 40.4733C27.7451 39.4858 28.7239 38.14 30.0347 38.909C45.0395 47.6393 63.5923 52.8914 82.7568 52.8914C95.6817 52.8914 109.9 50.2172 122.973 44.668C124.948 43.8291 126.6 45.9614 124.669 47.3946Z" fill="#FF9900"/>
<path d="M129.519 41.8456C128.033 39.9405 119.661 40.9454 115.904 41.3911C114.759 41.531 114.584 40.5347 115.615 39.8181C122.283 35.1253 133.224 36.4798 134.5 38.0529C135.776 39.6346 134.168 50.602 127.902 55.8366C126.941 56.6406 126.023 56.2124 126.452 55.1462C127.859 51.6332 131.013 43.7594 129.519 41.8456" fill="#FF9900"/>
<path d="M116.166 6.68866V2.12693C116.166 1.43655 116.69 0.973389 117.319 0.973389H137.742C138.398 0.973389 138.922 1.44529 138.922 2.12693V6.03324C138.913 6.68866 138.363 7.54507 137.384 8.89961L126.801 24.0093C130.734 23.9131 134.885 24.4986 138.45 26.5086C139.254 26.963 139.473 27.6272 139.534 28.2826V33.1502C139.534 33.8144 138.8 34.5921 138.031 34.1901C131.747 30.8955 123.402 30.5372 116.454 34.2251C115.746 34.6096 115.004 33.8406 115.004 33.1764V28.5535C115.004 27.8107 115.012 26.5435 115.755 25.4162L128.016 7.83346H117.346C116.69 7.83346 116.166 7.3703 116.166 6.68866" fill="#221F1F"/>
<path d="M41.6663 35.1515H35.4529C34.8586 35.1078 34.3867 34.6621 34.343 34.0941V2.20565C34.343 1.5677 34.8761 1.06084 35.5403 1.06084H41.3342C41.9372 1.08704 42.4178 1.55022 42.4615 2.12699V6.29547H42.5751C44.0869 2.26681 46.9271 0.387939 50.7548 0.387939C54.6436 0.387939 57.073 2.26681 58.8208 6.29547C60.3239 2.26681 63.7408 0.387939 67.4025 0.387939C70.0067 0.387939 72.8556 1.46283 74.5946 3.87478C76.5609 6.55764 76.1589 10.4552 76.1589 13.8721L76.1502 33.9979C76.1502 34.6359 75.6171 35.1515 74.9529 35.1515H68.7483C68.1278 35.1078 67.6297 34.6097 67.6297 33.9979V17.0968C67.6297 15.751 67.752 12.3953 67.4549 11.1194C66.9917 8.97833 65.6022 8.37534 63.802 8.37534C62.2989 8.37534 60.7259 9.38032 60.088 10.9883C59.45 12.5963 59.5112 15.2878 59.5112 17.0968V33.9979C59.5112 34.6359 58.9781 35.1515 58.314 35.1515H52.1093C51.4801 35.1078 50.9907 34.6097 50.9907 33.9979L50.982 17.0968C50.982 13.5401 51.5675 8.30543 47.1543 8.30543C42.6887 8.30543 42.8635 13.409 42.8635 17.0968V33.9979C42.8635 34.6359 42.3304 35.1515 41.6663 35.1515Z" fill="#221F1F"/>
<path d="M156.505 0.387939C165.724 0.387939 170.714 8.30543 170.714 18.3727C170.714 28.0991 165.2 35.8156 156.505 35.8156C147.451 35.8156 142.522 27.8981 142.522 18.0319C142.522 8.10443 147.512 0.387939 156.505 0.387939V0.387939ZM156.557 6.89846C151.978 6.89846 151.69 13.1381 151.69 17.0269C151.69 20.9245 151.628 29.2439 156.505 29.2439C161.32 29.2439 161.547 22.5324 161.547 18.4426C161.547 15.751 161.434 12.5351 160.621 9.9833C159.922 7.76362 158.532 6.89846 156.557 6.89846" fill="#221F1F"/>
<path d="M182.669 35.1515H176.482C175.862 35.1078 175.363 34.6097 175.363 33.9979L175.355 2.10077C175.407 1.51526 175.923 1.06084 176.552 1.06084H182.311C182.853 1.08704 183.298 1.45409 183.421 1.95221V6.82854H183.534C185.273 2.46781 187.712 0.387939 192.002 0.387939C194.79 0.387939 197.508 1.39292 199.256 4.14569C200.881 6.69746 200.881 10.9883 200.881 14.0731V34.1465C200.811 34.7058 200.296 35.1515 199.684 35.1515H193.453C192.885 35.1078 192.413 34.6883 192.352 34.1465V16.8259C192.352 13.3391 192.754 8.23551 188.463 8.23551C186.951 8.23551 185.562 9.24924 184.871 10.7873C183.998 12.7361 183.884 14.6761 183.884 16.8259V33.9979C183.875 34.6359 183.333 35.1515 182.669 35.1515" fill="#221F1F"/>
<path d="M18.4294 19.9194V18.5736C13.9376 18.5736 9.19236 19.5349 9.19236 24.8307C9.19236 27.5136 10.5819 29.3313 12.9676 29.3313C14.7154 29.3313 16.2796 28.2564 17.2672 26.5086C18.4906 24.3588 18.4294 22.3401 18.4294 19.9194V19.9194ZM24.6953 35.064C24.2845 35.4311 23.6903 35.4573 23.2271 35.2126C21.1647 33.4998 20.7977 32.7045 19.6616 31.0703C16.2534 34.5484 13.8415 35.5884 9.41958 35.5884C4.19368 35.5884 0.121338 32.3637 0.121338 25.9056C0.121338 20.8633 2.85663 17.4288 6.74546 15.751C10.1187 14.2653 14.829 14.0032 18.4294 13.5924V12.7885C18.4294 11.3116 18.543 9.56379 17.6779 8.28791C16.9176 7.1431 15.4669 6.6712 14.191 6.6712C11.8228 6.6712 9.70796 7.88591 9.19236 10.4027C9.08749 10.962 8.67677 11.5126 8.11748 11.5388L2.0876 10.8921C1.58074 10.7785 1.02145 10.3678 1.16127 9.59001C2.55076 2.28425 9.14867 0.0820312 15.0562 0.0820312C18.0799 0.0820312 22.0299 0.886014 24.4156 3.17562C27.4393 5.9983 27.1509 9.76478 27.1509 13.8634V23.5461C27.1509 26.4562 28.3569 27.7321 29.4929 29.3051C29.8949 29.8644 29.9823 30.5373 29.4755 30.9567C28.2083 32.0142 25.9537 33.9804 24.7127 35.0815L24.6953 35.064" fill="#221F1F"/>
<path d="M98.9748 19.9194V18.5736C94.483 18.5736 89.7377 19.5349 89.7377 24.8307C89.7377 27.5136 91.1272 29.3313 93.5129 29.3313C95.2607 29.3313 96.825 28.2564 97.8125 26.5086C99.036 24.3588 98.9748 22.3401 98.9748 19.9194V19.9194ZM105.241 35.064C104.83 35.4311 104.236 35.4573 103.772 35.2126C101.71 33.4998 101.343 32.7045 100.207 31.0703C96.7988 34.5484 94.3868 35.5884 89.9649 35.5884C84.739 35.5884 80.6667 32.3637 80.6667 25.9056C80.6667 20.8633 83.402 17.4288 87.2908 15.751C90.664 14.2653 95.3743 14.0032 98.9748 13.5924V12.7885C98.9748 11.3116 99.0884 9.56379 98.2232 8.28791C97.4629 7.1431 96.0123 6.6712 94.7364 6.6712C92.3681 6.6712 90.2533 7.88591 89.7377 10.4027C89.6328 10.962 89.2221 11.5126 88.6628 11.5388L82.633 10.8921C82.1261 10.7785 81.5668 10.3678 81.7066 9.59001C83.0961 2.28425 89.694 0.0820312 95.6016 0.0820312C98.6252 0.0820312 102.575 0.886014 104.961 3.17562C107.985 5.9983 107.696 9.76478 107.696 13.8634V23.5461C107.696 26.4562 108.902 27.7321 110.038 29.3051C110.44 29.8644 110.528 30.5373 110.021 30.9567C108.754 32.0142 106.499 33.9804 105.258 35.0815L105.241 35.064" fill="#221F1F"/>
</g>
<defs>
<clipPath id="clip0_18_470">
<rect width="201" height="60.6667" fill="white"/>
</clipPath>
</defs>
</svg>
