<svg width="329" height="66" viewBox="0 0 329 66" fill="none" xmlns="http://www.w3.org/2000/svg">
<path d="M80.1663 1.69995C71.8865 1.69995 68.9803 7.45744 68.9803 12.8311V16.1211H67.2257C65.9645 16.1211 64.9775 17.1081 64.9775 18.3693C64.9775 19.6304 65.9645 20.6174 67.2257 20.6174H68.9803V43.3184C68.9803 44.6344 70.0222 45.7311 71.393 45.7311C72.709 45.7311 73.8057 44.6893 73.8057 43.3184V20.6174H79.1245C80.3857 20.6174 81.3727 19.6304 81.3727 18.3693C81.3727 17.1081 80.3857 16.1211 79.1245 16.1211H73.8057V12.8311C73.8057 9.81528 74.9023 6.25111 80.2212 6.25111C81.4823 6.25111 82.4693 5.26411 82.4693 4.00294C82.4145 2.68694 81.4275 1.69995 80.1663 1.69995Z" fill="#4D4D4D"/>
<path d="M98.8097 15.3533C95.2455 15.3533 92.2297 16.8338 90.5298 19.2464V17.9853C90.5298 16.6693 89.488 15.5726 88.1172 15.5726C86.8012 15.5726 85.7045 16.6144 85.7045 17.9853V43.3183C85.7045 44.6343 86.7463 45.7309 88.1172 45.7309C89.4332 45.7309 90.5298 44.6891 90.5298 43.3183V29.3358C90.5298 23.4686 93.6553 19.9593 98.8097 19.9593C100.071 19.9593 101.113 18.9174 101.113 17.6563C101.168 16.3951 100.126 15.3533 98.8097 15.3533Z" fill="#4D4D4D"/>
<path d="M128.145 27.8005C128.145 26.4296 127.926 22.8655 125.842 19.9045C123.704 16.8338 120.359 15.2437 115.808 15.2437C107.364 15.2437 102.538 20.8367 102.538 30.597C102.538 40.6863 107.364 46.06 116.411 46.06C122.498 46.06 125.842 43.0442 126.446 42.441C126.829 42.0572 127.268 41.5637 127.268 40.7412C127.268 39.5348 126.281 38.5478 125.075 38.5478C124.472 38.5478 124.088 38.7123 123.704 38.9865C121.949 40.3025 119.92 41.6185 116.466 41.6185C111.037 41.6185 107.583 38.0543 107.418 32.242H125.239C128.145 32.1872 128.145 29.5551 128.145 27.8005ZM115.808 19.6303C120.743 19.6303 123.32 22.4268 123.43 27.9102H107.473C107.912 22.5913 110.873 19.6303 115.808 19.6303Z" fill="#4D4D4D"/>
<path d="M144.267 28.1842C140.702 26.9778 137.632 25.8812 137.632 23.2492C137.632 20.343 140.867 19.9043 142.786 19.9043C146.24 19.9043 147.94 21.1107 149.311 22.4267C149.75 22.8653 150.298 23.0847 150.901 23.0847C152.108 23.0847 153.095 22.0977 153.095 20.8913C153.095 20.2333 152.82 19.7947 152.601 19.4657C150.572 16.7788 147.118 15.2983 142.786 15.2983C136.645 15.2983 132.861 18.369 132.861 23.2492C132.861 29.226 138.125 31.0355 142.731 32.5708C146.24 33.7772 149.256 34.7642 149.256 37.3413C149.256 40.8507 145.363 41.399 143.005 41.399C139.825 41.399 137.357 40.412 135.329 38.438C134.725 37.8348 134.067 37.7252 133.684 37.7252C132.477 37.7252 131.49 38.7122 131.49 39.9185C131.49 40.412 131.655 40.7958 132.039 41.3442C133.848 43.6472 137.961 46.005 143.005 46.005C149.914 46.005 154.027 42.7698 154.027 37.3962C154.027 31.5838 148.873 29.7743 144.267 28.1842Z" fill="#4D4D4D"/>
<path d="M172.725 15.2437C169.435 15.2437 166.474 16.5597 164.829 18.6433V2.41266C164.829 1.09666 163.787 0 162.416 0C161.1 0 160.004 1.04183 160.004 2.41266V43.3732C160.004 44.6892 161.045 45.7858 162.416 45.7858C163.732 45.7858 164.829 44.744 164.829 43.3732V27.965C164.829 22.4268 167.516 19.6303 172.725 19.6303C177.77 19.6303 179.853 21.9333 179.853 27.5263V43.3732C179.853 44.6892 180.895 45.7858 182.266 45.7858C183.582 45.7858 184.679 44.744 184.679 43.3732V26.7038C184.569 19.082 180.566 15.2437 172.725 15.2437Z" fill="#4D4D4D"/>
<path d="M224.542 15.6274C223.501 15.6274 222.678 16.2306 222.294 17.2176L215.44 36.7383L209.847 17.2176C209.628 16.4499 208.805 15.6274 207.599 15.6274C206.393 15.6274 205.57 16.4499 205.351 17.2176L199.758 36.6834L192.904 17.1628C192.52 16.1758 191.697 15.6274 190.655 15.6274C189.339 15.6274 188.243 16.6693 188.243 18.0401C188.243 18.3691 188.298 18.6981 188.462 19.0271L197.619 44.1956C198.003 45.1826 198.826 45.7309 199.868 45.7309C200.964 45.7309 201.896 45.0181 202.17 44.0311L207.544 25.5523L212.918 44.0311C213.192 45.0181 214.179 45.7309 215.221 45.7309C216.263 45.7309 217.085 45.1278 217.469 44.1408L226.626 18.9723C226.791 18.6433 226.845 18.2594 226.845 17.9304C226.9 16.6693 225.858 15.6274 224.542 15.6274Z" fill="#4D4D4D"/>
<path d="M241.979 15.2437C233.261 15.2437 228.49 20.727 228.49 30.597C228.49 40.5767 233.261 46.06 241.979 46.06C250.698 46.06 255.468 40.5767 255.468 30.597C255.468 20.6722 250.643 15.2437 241.979 15.2437ZM241.979 41.6733C236.167 41.6733 233.316 38.0543 233.316 30.6518C233.316 23.359 236.222 19.6852 241.979 19.6852C247.737 19.6852 250.643 23.359 250.643 30.6518C250.643 38.0543 247.792 41.6733 241.979 41.6733Z" fill="#4D4D4D"/>
<path d="M274.002 15.3533C270.438 15.3533 267.422 16.8338 265.722 19.2464V17.9853C265.722 16.6693 264.68 15.5726 263.31 15.5726C261.994 15.5726 260.897 16.6144 260.897 17.9853V43.3183C260.897 44.6343 261.939 45.7309 263.31 45.7309C264.626 45.7309 265.722 44.6891 265.722 43.3183V29.3358C265.722 23.4686 268.848 19.9593 274.002 19.9593C275.263 19.9593 276.305 18.9174 276.305 17.6563C276.305 16.3951 275.263 15.3533 274.002 15.3533Z" fill="#4D4D4D"/>
<path d="M292.207 27.8553L302.132 19.9045C302.954 19.2465 303.064 18.424 303.064 17.9853C303.064 16.6693 302.022 15.5727 300.651 15.5727C300.267 15.5727 299.609 15.6275 299.006 16.1758L284.914 27.6908V2.41266C284.914 1.09666 283.872 0 282.501 0C281.185 0 280.089 1.04183 280.089 2.41266V43.3732C280.089 44.6892 281.13 45.7858 282.501 45.7858C283.817 45.7858 284.914 44.744 284.914 43.3732V33.5032L288.259 30.8163L299.061 44.6892C299.664 45.402 300.322 45.7858 301.09 45.7858C302.406 45.7858 303.502 44.744 303.502 43.3732C303.502 42.9893 303.448 42.441 303.009 41.8927L292.207 27.8553Z" fill="#4D4D4D"/>
<path d="M319.24 28.1842C315.675 26.9778 312.605 25.8812 312.605 23.2492C312.605 20.343 315.84 19.9043 317.759 19.9043C321.214 19.9043 322.913 21.1107 324.284 22.4267C324.723 22.8653 325.271 23.0847 325.875 23.0847C327.081 23.0847 328.068 22.0977 328.068 20.8913C328.068 20.1785 327.684 19.685 327.574 19.4657C325.545 16.7788 322.091 15.2983 317.759 15.2983C311.618 15.2983 307.834 18.369 307.834 23.2492C307.834 29.226 313.098 31.0355 317.704 32.5708C321.214 33.7772 324.23 34.7642 324.23 37.3413C324.23 40.8507 320.336 41.399 317.979 41.399C314.798 41.399 312.331 40.412 310.302 38.438C309.699 37.8348 309.096 37.7252 308.657 37.7252C307.451 37.7252 306.464 38.7122 306.464 39.9185C306.464 40.412 306.628 40.7958 307.012 41.3442C308.821 43.6472 312.934 46.005 317.979 46.005C324.887 46.005 329 42.7698 329 37.3962C329 31.5838 323.846 29.7743 319.24 28.1842Z" fill="#4D4D4D"/>
<path d="M0.328995 42.0024C1.26116 48.0889 4.11249 53.5723 8.22499 57.6848L17.8208 48.0889C17.8208 38.3834 22.8655 28.9521 31.8582 23.7429L0.328995 42.0024Z" fill="#9B65C3"/>
<path d="M17.8208 48.0888C13.0503 48.0888 8.22499 46.8825 3.78349 44.3053C2.57716 43.5925 1.42566 42.8248 0.328995 41.9475C1.26116 48.034 4.11249 53.5173 8.22499 57.6298L17.8208 48.0888Z" fill="#9B65C3"/>
<path d="M17.8208 48.0888L8.22501 57.6847C12.3923 61.852 17.8208 64.7033 23.9073 65.5807L42.112 34.0515C36.9577 43.0442 27.5263 48.0888 17.8208 48.0888Z" fill="#BE63C5"/>
<path d="M21.6043 62.1811C19.0272 57.7396 17.8208 52.9143 17.8208 48.1438L8.22501 57.7396C12.3923 61.907 17.8208 64.7583 23.9073 65.6356C23.0848 64.539 22.3172 63.3875 21.6043 62.1811Z" fill="#BF63C6"/>
<path d="M53.5722 11.2407L31.913 23.7976C22.9203 29.0067 12.2278 28.6229 3.83834 23.7976C1.42567 27.9101 0.0548401 32.7354 0.0548401 37.8349C0.0548401 39.2606 0.164506 40.6314 0.383839 42.0022C1.48051 42.8796 2.63201 43.6472 3.83834 44.3601C8.27984 46.9372 13.1052 48.1436 17.8757 48.1436L54.1753 11.8439C53.956 11.6246 53.7915 11.4052 53.5722 11.2407Z" fill="#3278B1"/>
<path d="M3.7835 44.3601C8.225 46.9373 13.0503 48.1436 17.8208 48.1436C17.8208 38.4381 22.8655 29.0068 31.8582 23.7976L0.27417 42.0023C1.42567 42.8248 2.57717 43.6473 3.7835 44.3601Z" fill="#3278B2"/>
<path d="M3.7835 23.7976C1.37083 27.9101 0 32.7354 0 37.8349C0 39.2606 0.109667 40.6314 0.329 42.0023L31.913 23.7976C22.8655 28.9519 12.173 28.6229 3.7835 23.7976Z" fill="#45A4EC"/>
<path d="M54.1753 11.7892C54.0108 11.6247 53.7915 11.4054 53.5722 11.2409C53.298 11.0216 53.0238 10.8022 52.6948 10.6377C51.653 10.0346 50.4467 9.70557 49.1855 9.70557H28.1295C17.7112 9.70557 8.66367 15.3534 3.78351 23.7429C12.173 28.5682 22.8655 28.9521 31.8582 23.7429C22.8655 28.9521 17.8208 38.3834 17.8208 48.0889C27.5263 48.0889 36.9577 43.0442 42.1668 34.0516L54.6688 12.3924C54.5043 12.1731 54.3398 11.9537 54.1753 11.7892Z" fill="#19BB7D"/>
<path d="M31.913 23.7975L53.5722 11.2956C53.298 11.0762 53.0238 10.8569 52.6948 10.6924L3.78351 23.7975C12.173 28.6229 22.8655 28.9519 31.913 23.7975Z" fill="#08C7FB"/>
<path d="M49.1855 9.70557H28.1295C17.7112 9.70557 8.66367 15.3534 3.78351 23.7429L52.6948 10.6377C51.653 10.0894 50.5015 9.70557 49.1855 9.70557Z" fill="#59F2F6"/>
<path d="M42.1668 34.0514L54.6688 12.3922C54.5043 12.1729 54.3398 12.0084 54.1205 11.7891L17.8208 48.0887C17.8208 52.8592 19.0272 57.6846 21.6043 62.1261C22.3172 63.3324 23.0848 64.4839 23.9622 65.5806C25.333 65.7999 26.7038 65.9096 28.1295 65.9096C33.229 65.9096 38.0543 64.5387 42.1668 62.1261C37.3415 53.7366 36.9577 43.0441 42.1668 34.0514Z" fill="#DA3757"/>
<path d="M17.8208 48.0888C17.8208 52.8593 19.0272 57.6847 21.6043 62.1262C22.3172 63.3325 23.0848 64.484 23.9622 65.5807L42.1668 34.0515C36.9577 43.0442 27.5263 48.0888 17.8208 48.0888Z" fill="#D33C4E"/>
<path d="M42.1668 34.0515L23.9622 65.6355C25.333 65.8548 26.7038 65.9645 28.1295 65.9645C33.229 65.9645 38.0543 64.5937 42.1668 62.181C37.3415 53.7367 36.9577 43.0442 42.1668 34.0515Z" fill="#EE5A24"/>
<path d="M55.272 13.2695C55.1075 12.9405 54.8882 12.6664 54.6688 12.3922C54.5043 12.1729 54.3398 12.0084 54.1205 11.7891C53.956 11.6246 53.7367 11.4052 53.5173 11.2407L31.913 23.7976C22.9203 29.0067 17.8757 38.438 17.8757 48.1436C27.5812 48.1436 37.0125 43.0989 42.2217 34.1062C37.0125 43.0989 37.3963 53.7914 42.2217 62.1809C50.6112 57.3007 56.259 48.2532 56.259 37.8349V16.7789C56.2042 15.4629 55.8752 14.2565 55.272 13.2695Z" fill="#8BDF55"/>
<path d="M53.5722 11.2407L31.913 23.7976C22.9203 29.0067 17.8757 38.438 17.8757 48.1436L54.1753 11.8439C53.956 11.6246 53.7915 11.4052 53.5722 11.2407Z" fill="#25C16F"/>
<path d="M17.8208 48.0887C27.5263 48.0887 36.9577 43.0441 42.1668 34.0514L54.6688 12.3922C54.5043 12.1729 54.3398 12.0084 54.1205 11.7891L17.8208 48.0887Z" fill="#8BDF55"/>
<path d="M54.6688 12.3923L42.1668 34.0515C36.9577 43.0442 37.3415 53.7367 42.1668 62.1262L55.272 13.2148C55.1075 12.9407 54.8882 12.6665 54.6688 12.3923Z" fill="#FFBB00"/>
<path d="M42.1668 62.1809C50.5563 57.3007 56.2042 48.2532 56.2042 37.8349V16.7789C56.2042 15.5177 55.8752 14.3114 55.272 13.2695L42.1668 62.1809Z" fill="#FFA800"/>
</svg>
