<svg width="301" height="51" viewBox="0 0 301 51" fill="none" xmlns="http://www.w3.org/2000/svg">
<path d="M240.57 2.13742V20.477H265.105C265.105 20.5401 265.084 2.13321 265.105 2.13742C265.084 2.13321 277.131 2.13742 277.258 2.13742C277.258 2.13742 277.3 47.9391 277.258 47.9917H265.105V27.8082C265.105 27.8713 240.57 27.8082 240.57 27.8082C240.591 27.8923 240.57 48.0064 240.57 47.9917H228.439C228.439 47.9917 228.502 2.13742 228.439 2.13742H240.57Z" fill="black"/>
<path d="M125.293 2.13742V9.93328H106.707V47.9917H94.5763V9.93328H75.9908C75.9908 9.93328 76.0118 2.15424 75.9908 2.13742C76.0118 2.15424 125.293 2.13742 125.293 2.13742Z" fill="black"/>
<path d="M143.626 9.93333L135.175 30.7959H152.078L143.626 9.93333ZM172.493 47.9918H158.974C158.995 47.9918 155.001 38.1376 155.001 38.1376H132.231C132.231 38.1376 128.321 48.0065 128.279 47.9918C128.279 48.0065 114.739 47.9918 114.739 47.9918L136.184 2.13748C136.184 2.1585 151.069 2.13748 151.069 2.13748L172.493 47.9918Z" fill="black"/>
<path d="M286.887 47.9911H299.039V2.13684H286.887V47.9911Z" fill="black"/>
<path d="M13.191 2.13742C13.191 2.13742 13.1699 20.6116 13.191 20.477H37.7265C37.7265 20.5401 37.6844 2.13321 37.7265 2.13742C37.6844 2.13321 49.7525 2.13742 49.8786 2.13742C49.8786 2.13742 49.9206 47.9391 49.8786 47.9917H37.7265V27.8082C37.7265 27.8713 13.191 27.8082 13.191 27.8082C13.191 27.8923 13.1699 48.0064 13.191 47.9917H1.03885C1.03885 47.9917 1.10192 2.13742 1.03885 2.13742H13.191Z" fill="black"/>
<path d="M59.5076 47.9911H71.6387V2.13684H59.5076V47.9911Z" fill="black"/>
<path d="M172.072 35.3013C171 32.2087 170.432 28.9499 170.432 25.5187C170.432 20.702 171.273 16.0367 173.586 12.1513C175.962 8.16302 179.62 5.08504 184.035 3.44934C188.219 1.8683 192.739 0.999991 197.491 0.999991C202.936 0.999991 208.087 2.19208 212.818 4.22724C217.191 6.11313 220.492 10.0552 221.48 14.8214C221.69 15.7633 221.837 16.7494 221.9 17.7333H209.159C209.117 16.4971 208.928 15.2945 208.508 14.2075C207.541 11.672 205.417 9.68939 202.81 8.90728C201.128 8.37956 199.32 8.10625 197.491 8.10625C195.388 8.10625 193.349 8.46156 191.478 9.13855C188.366 10.2318 185.948 12.7569 184.834 15.8706C183.762 18.8771 183.173 22.1337 183.173 25.5187C183.173 28.3275 183.636 31.0292 184.33 33.571C185.255 36.9076 187.778 39.5966 190.973 40.8224C192.992 41.5792 195.199 42.0229 197.491 42.0229C199.446 42.0229 201.317 41.7285 203.104 41.1566C205.48 40.3914 207.414 38.64 208.424 36.3883C209.075 34.8935 209.412 33.2367 209.412 31.4665H222.216C222.132 32.9655 221.921 34.4414 221.606 35.8206C220.492 40.3598 217.317 44.1737 213.112 45.9376C208.297 47.9496 203.041 49.1228 197.491 49.1228C193.202 49.1228 189.039 48.45 185.171 47.2306C179.242 45.3678 174.112 41.0999 172.072 35.3013Z" fill="black"/>
</svg>
