<svg width="179" height="72" viewBox="0 0 179 72" fill="none" xmlns="http://www.w3.org/2000/svg">
<g clip-path="url(#clip0_19_479)">
<path d="M0 66.8059H34.8035V71.788H0V66.8059Z" fill="#1F70C1"/>
<path d="M0 57.2495H34.8035V62.2492H0V57.2495Z" fill="#1F70C1"/>
<path d="M9.92877 47.7109H24.8572V52.7108H9.92877V47.7109Z" fill="#1F70C1"/>
<path d="M9.92877 38.1724H24.8572V43.1722H9.92877V38.1724Z" fill="#1F70C1"/>
<path d="M9.92877 28.6335H24.8572V33.6334H9.92877V28.6335Z" fill="#1F70C1"/>
<path d="M9.92877 19.0774H24.8572V24.0772H9.92877V19.0774Z" fill="#1F70C1"/>
<path d="M34.8035 9.53857H0V14.5384H34.8035V9.53857Z" fill="#1F70C1"/>
<path d="M34.8035 0H0V4.99983H34.8035V0Z" fill="#1F70C1"/>
<path d="M39.7679 62.2493H93.2941C94.1982 60.7069 94.872 59.0225 95.2799 57.2495H39.7679V62.2493Z" fill="#1F70C1"/>
<path d="M89.1277 38.1724H49.7144V43.1722H93.2943C92.1594 41.2572 90.7587 39.573 89.1277 38.1724Z" fill="#1F70C1"/>
<path d="M49.7144 28.6335V33.6334H89.1277C90.7944 32.2327 92.1948 30.5483 93.2943 28.6335H49.7144Z" fill="#1F70C1"/>
<path d="M93.2943 9.53857H39.7679V14.5384H95.2799C94.819 12.7654 94.1452 11.0812 93.2943 9.53857Z" fill="#1F70C1"/>
<path d="M76.8409 0H39.7679V4.99983H89.624C86.2909 1.91476 81.7699 0 76.8409 0Z" fill="#1F70C1"/>
<path d="M64.6251 19.0774H49.7144V24.0772H64.6251V19.0774Z" fill="#1F70C1"/>
<path d="M79.5535 24.0772H95.1557C95.5989 22.4816 95.8294 20.7972 95.8294 19.0774H79.5535V24.0772Z" fill="#1F70C1"/>
<path d="M49.7144 47.7109H64.6251V52.7108H49.7144V47.7109Z" fill="#1F70C1"/>
<path d="M79.5535 47.7109V52.7108H95.8294C95.8294 50.9909 95.5989 49.3067 95.1557 47.7109H79.5535Z" fill="#1F70C1"/>
<path d="M39.7679 71.7526L76.8409 71.8057C81.8053 71.8057 86.2909 69.891 89.6418 66.8059H39.7679V71.7526Z" fill="#1F70C1"/>
<path d="M99.4465 66.8059H124.303V71.788H99.4465V66.8059Z" fill="#1F70C1"/>
<path d="M99.4465 57.2495H124.303V62.2492H99.4465V57.2495Z" fill="#1F70C1"/>
<path d="M109.375 47.7109H124.304V52.7108H109.375V47.7109Z" fill="#1F70C1"/>
<path d="M109.375 38.1724H124.304V43.1722H109.375V38.1724Z" fill="#1F70C1"/>
<path d="M131.218 9.53857H99.4465V14.5384H132.938L131.218 9.53857Z" fill="#1F70C1"/>
<path d="M127.92 0H99.4465V4.99983H129.64L127.92 0Z" fill="#1F70C1"/>
<path d="M154.125 66.8059H179V71.788H154.125V66.8059Z" fill="#1F70C1"/>
<path d="M154.125 57.2495H179V62.2492H154.125V57.2495Z" fill="#1F70C1"/>
<path d="M154.125 47.7109H169.054V52.7108H154.125V47.7109Z" fill="#1F70C1"/>
<path d="M154.125 38.1724H169.054V43.1722H154.125V38.1724Z" fill="#1F70C1"/>
<path d="M154.125 33.6334H169.054V28.6335H154.125H140.615L139.214 32.6761L137.814 28.6335H124.304H109.375V33.6334H124.304V29.0413L125.882 33.6334H152.547L154.125 29.0413V33.6334Z" fill="#1F70C1"/>
<path d="M169.054 19.0774H143.913L142.193 24.0772H169.054V19.0774Z" fill="#1F70C1"/>
<path d="M150.526 0L148.806 4.99983H179V0H150.526Z" fill="#1F70C1"/>
<path d="M139.214 71.7526L140.934 66.8059H137.495L139.214 71.7526Z" fill="#1F70C1"/>
<path d="M135.917 62.2492H142.512L144.285 57.2495H134.161L135.917 62.2492Z" fill="#1F70C1"/>
<path d="M132.566 52.7108H145.863L147.618 47.7109H130.81L132.566 52.7108Z" fill="#1F70C1"/>
<path d="M129.232 43.1722H149.214L150.916 38.1724H127.513L129.232 43.1722Z" fill="#1F70C1"/>
<path d="M109.375 24.0772H136.236L134.516 19.0774H109.375V24.0772Z" fill="#1F70C1"/>
<path d="M145.508 14.5384H179V9.53857H147.211L145.508 14.5384Z" fill="#1F70C1"/>
</g>
<defs>
<clipPath id="clip0_19_479">
<rect width="179" height="71.8057" fill="white"/>
</clipPath>
</defs>
</svg>
