<svg width="160" height="79" viewBox="0 0 160 79" fill="none" xmlns="http://www.w3.org/2000/svg">
<g clip-path="url(#clip0_18_467)">
<path fill-rule="evenodd" clip-rule="evenodd" d="M0.0388184 79H80.7487L159.735 0H0.0388184V79" fill="url(#paint0_linear_18_467)"/>
<path fill-rule="evenodd" clip-rule="evenodd" d="M94.8108 15.8H79.0389L79.0916 52.8949L65.3579 15.786H51.74L40.0164 46.7768C38.77 38.8908 30.6172 36.1697 24.2024 34.1315C19.9662 32.771 15.4702 30.7696 15.5159 28.5576C15.551 26.7424 17.921 25.0588 22.6312 25.3099C25.7912 25.4801 28.5825 25.7347 34.1353 28.4172L39.5951 18.9021C34.5321 16.3249 27.5309 14.6975 21.7902 14.6923H21.7551C15.0612 14.6923 9.48731 16.8604 6.03237 20.4329C3.62375 22.9258 2.32464 26.0963 2.27197 29.6022C2.1842 34.4265 3.95204 37.8463 7.6668 40.5797C10.8057 42.8795 14.8207 44.3717 18.3581 45.4671C22.7207 46.8189 26.2845 47.9951 26.2406 50.4986C26.2055 51.4115 25.8614 52.2647 25.2048 52.9528C24.1164 54.0764 22.4486 54.4977 20.14 54.5434C15.6862 54.6382 12.3857 53.9377 7.12609 50.8286L2.26846 60.4666C7.52284 63.4546 13.1002 64.9538 19.4378 64.9538L20.8633 64.9433C26.3793 64.8432 30.8559 63.5213 34.4127 60.6597C34.6163 60.4965 34.7989 60.3314 34.9885 60.1647L34.3916 63.2404L47.6987 63.1983L50.0863 57.0854C52.5967 57.9421 55.4513 58.4161 58.4814 58.4161C61.4342 58.4161 64.2115 57.9667 66.6745 57.1592L68.3388 63.1983L92.2143 63.2211L92.2723 49.2855H97.3529C109.633 49.2855 116.892 43.0357 116.892 32.555C116.888 20.8824 109.831 15.7983 94.8108 15.7983L94.8108 15.8ZM58.4813 47.5089C56.6468 47.5089 54.9263 47.1893 53.4464 46.6276L58.4251 30.9066H58.5217L63.4197 46.6715C61.945 47.1981 60.265 47.5089 58.4796 47.5089H58.4813ZM95.7342 38.4765H92.2687V25.8067H95.736C100.353 25.8067 104.04 27.3445 104.04 32.06C104.036 36.9404 100.353 38.4765 95.736 38.4765" fill="white"/>
</g>
<defs>
<linearGradient id="paint0_linear_18_467" x1="79.8867" y1="0" x2="79.8867" y2="79.0018" gradientUnits="userSpaceOnUse">
<stop stop-color="#00AEEF"/>
<stop offset="0.212" stop-color="#0097DC"/>
<stop offset="0.519" stop-color="#007CC5"/>
<stop offset="0.792" stop-color="#006CB8"/>
<stop offset="1" stop-color="#0066B3"/>
</linearGradient>
<clipPath id="clip0_18_467">
<rect width="159.696" height="79" fill="white" transform="translate(0.0388184)"/>
</clipPath>
</defs>
</svg>
