<svg width="154" height="120" viewBox="0 0 154 120" fill="none" xmlns="http://www.w3.org/2000/svg">
<g clip-path="url(#clip0_17_365)">
<path d="M138.59 47.1097C139.44 50.3475 142.759 52.2901 146.037 51.3997C149.275 50.5498 151.218 47.2311 150.327 43.9528C149.477 40.7151 146.159 38.7724 142.88 39.6628C139.683 40.5532 137.74 43.8719 138.59 47.1097Z" fill="#2A4C87"/>
<path d="M130.374 53.5853C132.56 52.9783 133.896 50.7118 133.288 48.5263C132.681 46.3408 130.415 45.0052 128.229 45.6123C126.044 46.2194 124.708 48.4859 125.315 50.6714C125.882 52.8569 128.149 54.152 130.374 53.5853Z" fill="#2A4C87"/>
<path d="M118.233 55.6896C119.852 55.2444 120.823 53.5851 120.378 51.9662C119.933 50.3473 118.273 49.376 116.654 49.8211C115.035 50.2663 114.064 51.9257 114.509 53.5446C114.955 55.1635 116.614 56.1348 118.233 55.6896V55.6896Z" fill="#2A4C87"/>
<path d="M108.803 57.1062C109.815 56.8229 110.422 55.7706 110.179 54.7588C109.936 53.747 108.843 53.1399 107.831 53.3828C106.82 53.6661 106.213 54.7183 106.455 55.7301C106.698 56.7419 107.751 57.349 108.803 57.1062Z" fill="#2E4E88"/>
<path d="M134.098 34.8059C135.636 37.4366 138.995 38.3675 141.626 36.8295C144.256 35.2916 145.187 31.9324 143.649 29.3017C142.111 26.671 138.752 25.7401 136.122 27.2781C133.491 28.816 132.56 32.1752 134.098 34.8059Z" fill="#1F3D70"/>
<path d="M121.916 41.8078C122.968 43.6695 125.315 44.2766 127.177 43.2243C129.039 42.172 129.646 39.8247 128.594 37.9629C127.541 36.1012 125.194 35.4941 123.332 36.5464C121.511 37.5987 120.863 39.9461 121.916 41.8078Z" fill="#1F3D70"/>
<path d="M113.255 43.6289C111.919 44.3979 111.474 46.0572 112.243 47.3928C113.012 48.7284 114.671 49.1736 116.007 48.4046C117.342 47.6357 117.788 45.9763 117.019 44.6407C116.29 43.3456 114.59 42.9004 113.255 43.6289Z" fill="#1F3D70"/>
<path d="M105.525 49.2142C104.675 49.6998 104.351 50.7926 104.836 51.6425C105.322 52.4924 106.415 52.8162 107.265 52.3305C108.115 51.8449 108.439 50.7521 107.953 49.9022C107.467 49.0523 106.374 48.7285 105.525 49.2142V49.2142Z" fill="#1F3D70"/>
<path d="M133.491 24.0001C135.433 22.0574 135.433 18.941 133.491 16.9984C131.548 15.0557 128.432 15.0557 126.489 16.9984C124.546 18.941 124.546 22.0574 126.489 24.0001C128.391 25.9427 131.548 25.9427 133.491 24.0001Z" fill="#194C88"/>
<path d="M121.39 29.0591C119.973 27.6426 117.707 27.6426 116.331 29.0591C114.914 30.4756 114.914 32.7421 116.331 34.1181C117.747 35.5346 120.014 35.5346 121.39 34.1181C122.806 32.7016 122.806 30.4352 121.39 29.0591Z" fill="#194C88"/>
<path d="M108.439 38.4889C107.467 39.4602 107.467 41.0386 108.439 42.01C109.41 42.9813 110.988 42.9813 111.96 42.01C112.931 41.0386 112.931 39.4602 111.96 38.5294C110.988 37.5176 109.41 37.5176 108.439 38.4889V38.4889Z" fill="#194C88"/>
<path d="M102.327 48.1214C102.975 48.7689 104.027 48.7689 104.675 48.1214C105.322 47.4738 105.322 46.4216 104.675 45.774C104.027 45.1264 102.975 45.1264 102.327 45.774C101.68 46.4216 101.68 47.4738 102.327 48.1214Z" fill="#194C88"/>
<path d="M116.047 15.6628C118.273 16.9579 121.147 16.1889 122.442 13.963C123.737 11.737 122.968 8.86347 120.742 7.56836C118.516 6.27325 115.643 7.04222 114.347 9.26819C113.012 11.4942 113.781 14.3677 116.047 15.6628C116.047 15.6628 116.007 15.6628 116.047 15.6628Z" fill="#3468A3"/>
<path d="M107.67 23.5548C106.739 25.1332 107.305 27.1569 108.884 28.0877C110.462 29.0186 112.486 28.452 113.417 26.8735C114.347 25.2951 113.781 23.2715 112.202 22.3407C110.584 21.4098 108.56 21.9764 107.67 23.5548Z" fill="#3468A3"/>
<path d="M105.484 33.9156C104.432 33.3085 103.096 33.6727 102.489 34.725C101.882 35.7773 102.246 37.1129 103.299 37.72C104.351 38.327 105.686 37.9628 106.294 36.9105C106.901 35.8582 106.536 34.5227 105.484 33.9156Z" fill="#3468A3"/>
<path d="M100.385 42.7387C99.6561 42.3339 98.7253 42.5768 98.3205 43.3053C97.9158 44.0338 98.1586 44.9646 98.8871 45.3694C99.6156 45.7741 100.547 45.5312 100.951 44.8027C101.356 44.0743 101.113 43.1434 100.385 42.7387Z" fill="#3468A3"/>
<path d="M103.744 10.2798C106.091 10.9274 108.519 9.51088 109.127 7.16349C109.774 4.8161 108.358 2.38777 106.01 1.78069C103.663 1.17361 101.234 2.54966 100.627 4.89705C99.9798 7.24444 101.396 9.67277 103.744 10.2798Z" fill="#4C8DCB"/>
<path d="M100.02 24.1214C101.639 24.5666 103.299 23.5952 103.744 21.9763C104.189 20.3575 103.218 18.6981 101.599 18.2529C99.9799 17.8077 98.3205 18.779 97.8753 20.3979C97.4706 22.0168 98.4015 23.6762 100.02 24.1214V24.1214Z" fill="#4C8DCB"/>
<path d="M97.1063 35.0488C98.1991 35.3321 99.3323 34.6845 99.6156 33.5918C99.8989 32.499 99.2513 31.3658 98.1586 31.0825C97.0658 30.7992 95.9326 31.4467 95.6493 32.5395C95.366 33.5918 96.0136 34.725 97.1063 35.0488Z" fill="#4C8DCB"/>
<path d="M93.8686 41.8484C93.6662 42.5769 94.1114 43.3458 94.8399 43.5482C95.5684 43.7506 96.3374 43.3054 96.5397 42.5769C96.7421 41.8484 96.2969 41.0794 95.5684 40.877C94.7994 40.6747 94.0305 41.1199 93.8686 41.8484Z" fill="#4C8DCB"/>
<path d="M90.388 8.25632C92.6544 8.25632 94.5161 6.3946 94.5161 4.12816C94.5161 1.86172 92.6544 0 90.388 0C88.1215 0 86.2598 1.86172 86.2598 4.12816C86.2598 6.43508 88.1215 8.25632 90.388 8.25632Z" fill="#3498B3"/>
<path d="M90.3879 17.0792C88.85 17.0792 87.6358 18.2934 87.6358 19.8313C87.6358 21.3693 88.85 22.5834 90.3879 22.5834C91.9259 22.5834 93.14 21.3693 93.14 19.8313C93.14 18.3339 91.9259 17.0792 90.3879 17.0792Z" fill="#3498B3"/>
<path d="M92.3306 32.0944C92.3306 31.0421 91.4807 30.1517 90.388 30.1517C89.2952 30.1517 88.4453 31.0017 88.4453 32.0944C88.4453 33.1871 89.2952 34.0371 90.388 34.0371C91.4807 34.0371 92.3306 33.1467 92.3306 32.0944Z" fill="#3498B3"/>
<path d="M90.388 40.3508C89.6999 40.3508 89.1333 40.9174 89.1333 41.6055C89.1333 42.2935 89.6999 42.8601 90.388 42.8601C91.076 42.8601 91.6426 42.2935 91.6426 41.6055C91.6426 40.9174 91.076 40.3508 90.388 40.3508Z" fill="#3498B3"/>
<path d="M76.9107 9.79423C78.9748 9.22762 80.189 7.12306 79.6223 5.05898C79.0557 2.9949 76.9512 1.78074 74.8871 2.34735C72.823 2.91396 71.6089 5.01851 72.1755 7.08259C72.7421 9.1062 74.8871 10.3204 76.9107 9.79423Z" fill="#0AA496"/>
<path d="M77.5987 21.855C77.963 23.1906 79.2986 23.9595 80.6341 23.5953C81.9697 23.231 82.7387 21.8954 82.3744 20.5599C82.0102 19.2243 80.6746 18.4553 79.339 18.8196C78.0439 19.1838 77.2345 20.5599 77.5987 21.855Z" fill="#0AA496"/>
<path d="M81.4436 33.5514C81.6864 34.5227 82.6982 35.0893 83.6291 34.806C84.6004 34.5632 85.167 33.5514 84.8837 32.6205C84.6409 31.6492 83.6291 31.0826 82.6982 31.3659C81.7269 31.6087 81.2008 32.58 81.4436 33.5514Z" fill="#0AA496"/>
<path d="M84.56 42.5362C84.7219 43.1433 85.3289 43.4671 85.8956 43.3052C86.5026 43.1433 86.8264 42.5362 86.6645 41.9696C86.5026 41.3625 85.8956 41.0388 85.3289 41.2006C84.7623 41.3625 84.3981 41.9291 84.56 42.5362Z" fill="#0AA496"/>
<path d="M64.243 14.7722C65.9428 13.8009 66.5499 11.5749 65.5785 9.87508C64.6072 8.17524 62.3812 7.56816 60.6814 8.53949C58.9816 9.51083 58.3745 11.7368 59.3458 13.4366C60.3576 15.1769 62.5431 15.7435 64.243 14.7722V14.7722Z" fill="#00AA75"/>
<path d="M71.4065 27.157C72.4588 26.5499 72.8231 25.2143 72.216 24.162C71.6089 23.1098 70.2733 22.7455 69.221 23.3526C68.1688 23.9597 67.8045 25.2952 68.4116 26.3475C68.9782 27.3998 70.3543 27.764 71.4065 27.157Z" fill="#00AA75"/>
<path d="M77.2345 37.3153C78.0439 36.8701 78.2868 35.8583 77.8416 35.0489C77.3964 34.2394 76.3846 33.9966 75.5751 34.4418C74.7657 34.887 74.5228 35.8988 74.968 36.7082C75.4537 37.4772 76.4655 37.7605 77.2345 37.3153Z" fill="#00AA75"/>
<path d="M82.0102 43.629C81.7269 43.1838 81.1603 43.0219 80.6746 43.2648C80.2294 43.5481 80.0675 44.1147 80.3104 44.6004C80.5937 45.0455 81.1603 45.2074 81.6055 44.9646C82.1316 44.6813 82.2935 44.0742 82.0102 43.629V43.629Z" fill="#00AA75"/>
<path d="M53.1941 22.9073C54.4892 21.6122 54.4892 19.5077 53.1941 18.2125C51.899 16.9174 49.7944 16.9174 48.4993 18.2125C47.2042 19.5077 47.2042 21.6122 48.4993 22.9073C49.8349 24.2024 51.9394 24.2024 53.1941 22.9073Z" fill="#4FBA6A"/>
<path d="M63.3525 30.3137C62.5836 29.5447 61.3694 29.5447 60.6409 30.3137C59.8719 31.0826 59.8719 32.2968 60.6409 33.0253C61.4099 33.7943 62.624 33.7943 63.3525 33.0253C64.081 32.2563 64.081 31.0422 63.3525 30.3137Z" fill="#4FBA6A"/>
<path d="M71.7303 39.2582C71.1232 38.6511 70.1923 38.6511 69.5853 39.2582C68.9782 39.8653 68.9782 40.7961 69.5853 41.4032C70.1923 42.0103 71.1232 42.0103 71.7303 41.4032C72.2969 40.7961 72.2969 39.8653 71.7303 39.2582Z" fill="#4FBA6A"/>
<path d="M77.963 46.4619C77.6392 46.1382 77.113 46.1786 76.8297 46.5024C76.506 46.8262 76.5464 47.3523 76.8702 47.6356C77.194 47.9189 77.6797 47.9189 78.0034 47.6356C78.2867 47.3119 78.2867 46.7857 77.963 46.4619V46.4619Z" fill="#4FBA6A"/>
<path d="M40.4049 34.6846C41.8618 35.5345 43.7236 35.0083 44.533 33.5918C45.3829 32.1348 44.8568 30.2731 43.4403 29.4637C41.9833 28.6137 40.1215 29.1399 39.3121 30.5564C38.4622 31.9729 38.9479 33.8346 40.4049 34.6846Z" fill="#7EC45F"/>
<path d="M56.4318 38.57C55.6224 38.1248 54.651 38.4081 54.1654 39.177C53.7202 39.9865 54.0035 40.9578 54.7724 41.4435C55.5819 41.8887 56.5532 41.6458 57.0389 40.8364C57.4841 40.027 57.2008 39.0152 56.4318 38.57Z" fill="#7EC45F"/>
<path d="M66.9141 44.9241C66.2665 44.5599 65.4166 44.7622 65.0524 45.4503C64.6881 46.0978 64.8905 46.9477 65.5785 47.312C66.2261 47.6762 67.076 47.4739 67.4402 46.8263C67.8045 46.1788 67.5616 45.3289 66.9141 44.9241V44.9241Z" fill="#7EC45F"/>
<path d="M146.401 53.3827C142.759 53.3827 139.764 56.3372 139.764 60.0201C139.764 63.6626 142.719 66.6576 146.401 66.6576C150.044 66.6576 152.998 63.7031 153.039 60.0606C152.998 56.3776 150.044 53.3827 146.401 53.3827Z" fill="#4C609B"/>
<path d="M135.433 60.0202C135.433 57.3895 133.329 55.2849 130.698 55.2849C128.068 55.2849 125.963 57.3895 125.963 60.0202C125.963 62.6508 128.068 64.7554 130.698 64.7554C133.288 64.7554 135.433 62.6508 135.433 60.0202Z" fill="#4C609B"/>
<path d="M118.435 56.7823C116.654 56.7823 115.197 58.2393 115.197 60.0201C115.197 61.8009 116.654 63.2579 118.435 63.2579C120.216 63.2579 121.673 61.8009 121.673 60.0201C121.673 58.2393 120.216 56.7823 118.435 56.7823Z" fill="#4C609B"/>
<path d="M111.029 60.0203C111.029 58.8466 110.098 57.9158 108.924 57.9158C107.75 57.9158 106.82 58.8466 106.82 60.0203C106.82 61.194 107.75 62.1249 108.924 62.1249C110.098 62.1249 111.029 61.194 111.029 60.0203Z" fill="#54669F"/>
<path d="M146.037 68.6004C142.799 67.71 139.481 69.6527 138.59 72.8905C137.7 76.1282 139.643 79.447 142.88 80.3373C146.118 81.2277 149.437 79.2851 150.327 76.0473V76.0068C151.177 72.8095 149.234 69.4908 146.037 68.6004Z" fill="#746FA7"/>
<path d="M128.229 74.3878C130.415 74.9949 132.681 73.6593 133.288 71.4738C133.896 69.2883 132.56 67.0219 130.374 66.4148C128.189 65.8077 125.923 67.1433 125.315 69.3288C124.708 71.5143 126.003 73.7808 128.229 74.3878Z" fill="#746FA7"/>
<path d="M116.654 70.1786C118.273 70.6238 119.933 69.6525 120.378 68.0336C120.823 66.4147 119.852 64.7554 118.233 64.3102C116.614 63.865 114.955 64.8363 114.509 66.4552C114.105 68.0741 115.035 69.7334 116.654 70.1786Z" fill="#746FA7"/>
<path d="M107.791 66.6576C108.803 66.9409 109.855 66.3338 110.138 65.2815C110.422 64.2697 109.815 63.2174 108.762 62.9341C107.75 62.6508 106.698 63.2579 106.415 64.3102C106.132 65.2815 106.739 66.3743 107.791 66.6576Z" fill="#746FA7"/>
<path d="M141.626 83.1704C138.995 81.6325 135.636 82.5633 134.098 85.194C132.56 87.8247 133.491 91.1839 136.122 92.7219C138.752 94.2598 142.111 93.3289 143.649 90.6982C145.147 88.0676 144.256 84.7084 141.626 83.1704Z" fill="#99558E"/>
<path d="M128.634 82.037C129.686 80.1753 129.079 77.8279 127.218 76.7757C125.356 75.7234 123.009 76.3305 121.956 78.1922C120.904 80.0539 121.511 82.4013 123.373 83.4536C125.194 84.5058 127.541 83.8583 128.634 82.037Z" fill="#99558E"/>
<path d="M117.019 75.3592C117.788 74.0236 117.342 72.3642 116.007 71.5952C114.671 70.8263 113.012 71.2715 112.243 72.6071C111.474 73.9426 111.919 75.602 113.255 76.371C114.59 77.0995 116.25 76.6543 117.019 75.3592Z" fill="#99558E"/>
<path d="M107.993 70.0979C108.479 69.248 108.196 68.1552 107.346 67.6291C106.496 67.1434 105.403 67.4267 104.877 68.2766C104.351 69.1265 104.675 70.2193 105.525 70.7454H105.565C106.415 71.2311 107.508 70.9478 107.993 70.0979Z" fill="#99558E"/>
<path d="M126.449 95.9999C124.506 97.9426 124.506 101.059 126.449 103.002C128.391 104.944 131.508 104.944 133.45 103.002C135.393 101.059 135.393 97.9426 133.45 95.9999C131.548 94.0977 128.391 94.0977 126.449 95.9999Z" fill="#AF3379"/>
<path d="M121.39 90.9409C122.806 89.5243 122.806 87.2579 121.39 85.8819C119.973 84.4653 117.707 84.4653 116.331 85.8819C114.914 87.2984 114.914 89.5648 116.331 90.9409C117.707 92.3574 119.973 92.3574 121.39 90.9409Z" fill="#AF3379"/>
<path d="M111.96 81.5111C112.931 80.5397 112.931 78.9613 111.96 77.99C110.988 77.0186 109.41 77.0186 108.439 77.99C107.467 78.9613 107.467 80.5397 108.439 81.4706C109.41 82.4824 110.988 82.4824 111.96 81.5111Z" fill="#AF3379"/>
<path d="M102.327 74.1856C102.975 74.8331 104.027 74.8331 104.675 74.1856C105.322 73.538 105.322 72.4858 104.675 71.8382C104.027 71.1907 102.975 71.1907 102.327 71.8382C101.68 72.4858 101.68 73.538 102.327 74.1856Z" fill="#AF3379"/>
<path d="M116.047 104.337C113.821 105.633 113.052 108.506 114.347 110.732C115.643 112.958 118.516 113.727 120.742 112.432C122.968 111.137 123.737 108.263 122.442 106.037C121.147 103.811 118.273 103.042 116.047 104.337Z" fill="#BE266A"/>
<path d="M113.376 93.1669C112.445 91.5885 110.462 91.0219 108.843 91.9527C107.265 92.8836 106.698 94.8667 107.629 96.4856C108.56 98.064 110.543 98.6306 112.162 97.6998C113.74 96.7689 114.307 94.7453 113.376 93.1669Z" fill="#BE266A"/>
<path d="M105.484 86.0843C106.536 85.4773 106.901 84.1417 106.294 83.0894C105.686 82.0371 104.351 81.6729 103.299 82.28C102.246 82.887 101.882 84.2226 102.489 85.2749C103.096 86.3272 104.432 86.6914 105.484 86.0843Z" fill="#BE266A"/>
<path d="M98.8871 74.6308C98.1586 75.0355 97.9158 75.9663 98.3205 76.6948C98.7253 77.4233 99.6561 77.6662 100.385 77.2614C101.113 76.8567 101.356 75.9259 100.951 75.1974C100.547 74.4689 99.6156 74.226 98.8871 74.6308Z" fill="#BE266A"/>
<path d="M103.744 109.72C101.396 110.368 99.9798 112.755 100.627 115.103C101.275 117.45 103.663 118.867 106.01 118.219C108.358 117.572 109.774 115.184 109.127 112.836C108.519 110.489 106.091 109.072 103.744 109.72Z" fill="#D4525C"/>
<path d="M101.599 101.706C103.218 101.261 104.189 99.6019 103.744 97.983C103.299 96.3641 101.639 95.3928 100.02 95.838C98.4015 96.2832 97.4706 97.9425 97.8753 99.5614C98.3205 101.221 99.9799 102.152 101.599 101.706Z" fill="#D4525C"/>
<path d="M99.6156 86.408C99.3323 85.3153 98.1991 84.6677 97.1063 84.951C96.0136 85.2343 95.366 86.3675 95.6493 87.4603C95.9326 88.553 97.0658 89.2006 98.1586 88.9173C99.2918 88.6745 99.9394 87.5412 99.6156 86.408Z" fill="#D4525C"/>
<path d="M96.4992 77.4233C96.2969 76.6948 95.5279 76.2496 94.7994 76.452C94.0709 76.6544 93.6257 77.4233 93.8281 78.1518C94.0304 78.8803 94.7589 79.3255 95.5279 79.1232C96.2564 78.9208 96.7016 78.1518 96.4992 77.4233Z" fill="#D4525C"/>
<path d="M90.388 111.744C88.1215 111.744 86.2598 113.605 86.2598 115.872C86.2598 118.138 88.1215 120 90.388 120C92.6544 120 94.5161 118.179 94.5161 115.872C94.5161 113.605 92.6949 111.744 90.388 111.744Z" fill="#E0654F"/>
<path d="M87.6358 100.169C87.6358 101.707 88.85 102.921 90.3879 102.921C91.9259 102.921 93.14 101.707 93.14 100.169C93.14 98.6307 91.9259 97.4165 90.3879 97.4165C88.8905 97.4165 87.6358 98.6307 87.6358 100.169Z" fill="#E0654F"/>
<path d="M90.388 89.8078C91.4402 89.8078 92.3306 88.9579 92.3306 87.8652C92.3306 86.7724 91.4807 85.9225 90.388 85.9225C89.3357 85.9225 88.4453 86.7724 88.4453 87.8652C88.4858 88.9579 89.3357 89.8078 90.388 89.8078Z" fill="#E0654F"/>
<path d="M90.388 77.1399C89.6999 77.1399 89.1333 77.7065 89.1333 78.3945C89.1333 79.0826 89.6999 79.6492 90.388 79.6492C91.076 79.6492 91.6426 79.0826 91.6426 78.3945C91.6426 77.7065 91.076 77.1399 90.388 77.1399Z" fill="#E0654F"/>
<path d="M76.9108 110.206C74.8467 109.639 72.7421 110.894 72.1755 112.917C71.6089 114.982 72.8635 117.086 74.8871 117.653C76.9512 118.219 79.0558 116.965 79.6224 114.941C80.189 112.877 78.9748 110.772 76.9108 110.206Z" fill="#F57F2A"/>
<path d="M80.6341 96.3642C79.2986 95.9999 77.963 96.8093 77.5987 98.1045C77.2345 99.44 78.0439 100.776 79.339 101.14C80.6746 101.504 82.0102 100.695 82.3744 99.3996C82.7387 98.1045 81.9697 96.7284 80.6341 96.3642Z" fill="#F57F2A"/>
<path d="M83.6291 85.1938C82.6578 84.951 81.6865 85.5176 81.4436 86.4485C81.2008 87.4198 81.7674 88.3911 82.6983 88.6339C83.6696 88.8768 84.6409 88.3102 84.8838 87.3793C85.1671 86.4484 84.6005 85.4771 83.6291 85.1938Z" fill="#F57F2A"/>
<path d="M86.705 78.0303C86.8668 77.4232 86.5026 76.8161 85.936 76.6947C85.3694 76.5733 84.7218 76.897 84.6004 77.4637C84.479 78.0303 84.8028 78.6778 85.3694 78.7992C85.936 78.9611 86.5431 78.6374 86.705 78.0303Z" fill="#F57F2A"/>
<path d="M64.2429 105.228C62.5431 104.256 60.3576 104.823 59.3458 106.523C58.3745 108.223 58.9411 110.408 60.6409 111.42C62.3407 112.391 64.5262 111.825 65.538 110.125C66.5498 108.425 65.9427 106.239 64.2429 105.228Z" fill="#F89828"/>
<path d="M71.4065 92.8433C70.3543 92.2362 69.0187 92.6005 68.4116 93.6527C67.8045 94.705 68.1688 96.0406 69.221 96.6477C70.2733 97.2548 71.6089 96.8905 72.216 95.8383C72.8231 94.786 72.4588 93.4504 71.4065 92.8433Z" fill="#F89828"/>
<path d="M75.6156 85.5581C76.4251 86.0033 77.4369 85.7605 77.8821 84.951C78.3273 84.1416 78.0844 83.1298 77.275 82.6846C76.4655 82.2394 75.4537 82.4822 75.0085 83.2917C74.5633 84.1011 74.8062 85.1129 75.6156 85.5581Z" fill="#F89828"/>
<path d="M81.6864 75.0354C81.2412 74.7521 80.6341 74.914 80.3913 75.3997C80.108 75.8448 80.2699 76.4519 80.7556 76.6948C81.2008 76.9781 81.8078 76.8162 82.0507 76.3305C82.2935 75.9258 82.1316 75.3187 81.6864 75.0354Z" fill="#F89828"/>
<path d="M48.5397 97.0927C47.2446 98.3878 47.2446 100.492 48.5397 101.787C49.8348 103.083 51.9394 103.083 53.2345 101.787C54.5296 100.492 54.5296 98.3878 53.2345 97.0927C51.9394 95.7976 49.8348 95.7976 48.5397 97.0927Z" fill="#FEC127"/>
<path d="M60.6409 86.9747C59.8719 87.7436 59.8719 88.9578 60.6409 89.6863C61.4099 90.4553 62.624 90.4553 63.3525 89.6863C64.081 88.9173 64.1215 87.7032 63.3525 86.9747C62.624 86.2057 61.3694 86.2057 60.6409 86.9747Z" fill="#FEC127"/>
<path d="M69.5853 78.5972C68.9782 79.2042 68.9782 80.1351 69.5853 80.7422C70.1923 81.3493 71.1232 81.3493 71.7303 80.7422C72.3374 80.1351 72.3374 79.2042 71.7303 78.5972C71.1232 77.9901 70.1519 77.9901 69.5853 78.5972Z" fill="#FEC127"/>
<path d="M77.963 72.3642C77.6392 72.0404 77.113 72.0809 76.8297 72.4046C76.506 72.7284 76.5464 73.2546 76.8702 73.5379C77.194 73.8212 77.6797 73.8212 78.0034 73.5379C78.2867 73.2141 78.2867 72.6879 77.963 72.3642Z" fill="#FEC127"/>
<path d="M40.4858 85.2344C39.0288 86.0843 38.5431 87.9055 39.393 89.3625C40.243 90.8195 42.0642 91.3052 43.5212 90.4553C44.9782 89.6054 45.4639 87.7841 44.6139 86.3271C43.8045 84.8701 41.9428 84.3845 40.4858 85.2344Z" fill="#FED627"/>
<path d="M54.7724 78.5564C54.0035 79.0016 53.7202 80.0134 54.1654 80.8229C54.6106 81.5918 55.6224 81.8751 56.4318 81.4299C57.2008 80.9847 57.4841 79.9729 57.0389 79.1635C56.5937 78.3945 55.5819 78.1112 54.7724 78.5564Z" fill="#FED627"/>
<path d="M65.538 72.688C64.8905 73.0522 64.6476 73.9021 65.0524 74.5497C65.4166 75.1972 66.2665 75.4401 66.9141 75.0354C67.5616 74.6711 67.8045 73.8212 67.3997 73.1736C67.0355 72.5261 66.1856 72.2833 65.538 72.688Z" fill="#FED627"/>
<path d="M34.334 50.3878H39.1907V69.086H34.334V50.3878ZM37.2885 42.0505C35.791 41.6458 34.2531 42.5362 33.8483 44.0337C33.4436 45.5311 34.334 47.0691 35.8315 47.4738C37.3289 47.8785 38.8669 46.9881 39.2716 45.4907C39.6763 43.9932 38.7859 42.4148 37.2885 42.0505ZM54.2058 69.4907C53.0321 69.4907 51.8584 69.2883 50.7657 68.8026C49.7944 68.3575 48.9445 67.6694 48.2969 66.8195V78.435H43.5617V50.3878H48.2564V52.978C48.8635 52.0472 49.7134 51.3187 50.7252 50.7925C51.7775 50.2664 52.9512 49.9831 54.1654 49.9831C55.3391 49.9831 56.4723 50.2259 57.565 50.6711C58.6578 51.1163 59.6291 51.8043 60.4386 52.6138C61.2885 53.5042 61.9765 54.5564 62.4217 55.6897C62.9478 56.9848 63.1907 58.3204 63.1502 59.6964C63.1907 61.0725 62.9074 62.4485 62.3812 63.7436C61.8956 64.8768 61.2075 65.9291 60.3576 66.8195C58.7792 68.5193 56.5128 69.4907 54.2058 69.4907V69.4907ZM53.2345 64.9578C53.9225 64.9578 54.6106 64.8364 55.2581 64.5531C55.8652 64.2698 56.4318 63.9055 56.9175 63.4198C57.4031 62.9342 57.7674 62.3676 58.0102 61.7605C58.5364 60.4249 58.5364 58.9679 58.0102 57.6323C57.7674 57.0252 57.3627 56.4586 56.9175 55.973C56.4318 55.4873 55.8652 55.1231 55.2581 54.8397C54.6106 54.5564 53.9225 54.435 53.2345 54.435C51.8584 54.435 50.5229 55.0016 49.5111 55.973C49.0254 56.4586 48.6611 57.0252 48.4183 57.6323C47.8922 58.9679 47.8922 60.4249 48.4183 61.72C48.6611 62.3271 49.0254 62.8937 49.5111 63.3794C50.5229 64.4317 51.8584 64.9983 53.2345 64.9578ZM66.6308 50.3878H71.3256V53.2613C71.7303 52.2495 72.4183 51.3996 73.3492 50.833C74.3205 50.3069 75.3728 50.0236 76.506 50.064C77.1131 50.064 77.6797 50.145 78.2463 50.2664C78.732 50.3878 79.2176 50.5497 79.6628 50.7925L77.9225 55.4873C77.5988 55.2849 77.2345 55.1231 76.8703 55.0016C76.3846 54.8802 75.8989 54.7993 75.4133 54.7993C74.3205 54.7588 73.2682 55.1231 72.4588 55.8111C71.7303 56.4991 71.366 57.6323 71.366 59.1703V69.0455H66.6308V50.3878ZM90.2261 69.4907C88.8905 69.4907 87.5549 69.2478 86.3003 68.7217C85.1266 68.236 84.0743 67.5075 83.1434 66.6172C81.3222 64.7959 80.3104 62.3271 80.3104 59.7369C80.3104 58.4418 80.5532 57.1467 81.0389 55.9325C81.5246 54.7588 82.2126 53.7065 83.103 52.8161C87.0288 49.0118 93.2615 49.0118 97.1873 52.8161C99.0085 54.6374 100.061 57.1062 100.061 59.6964C100.061 60.9915 99.818 62.2866 99.2918 63.4603C98.8062 64.634 98.0777 65.6863 97.2278 66.5767C96.3374 67.4671 95.2851 68.1956 94.0709 68.6812C92.8972 69.2074 91.5617 69.4907 90.2261 69.4907V69.4907ZM90.2665 64.9578C90.9546 64.9578 91.6426 64.8364 92.2902 64.5531C92.8972 64.2698 93.4234 63.9055 93.909 63.4603C94.3947 62.9747 94.759 62.408 95.0018 61.801C95.5279 60.4654 95.5279 59.0084 95.0018 57.7133C94.759 57.1062 94.3947 56.5396 93.909 56.0539C93.4234 55.5682 92.8972 55.204 92.2902 54.9612C90.995 54.3946 89.538 54.3946 88.2834 54.9612C87.6763 55.2445 87.1502 55.6087 86.6645 56.0539C86.1789 56.5396 85.8146 57.1062 85.5718 57.7133C85.0456 59.0489 85.0456 60.5059 85.5718 61.801C85.8146 62.408 86.1789 62.9747 86.6645 63.4603C87.1502 63.946 87.6763 64.3102 88.2834 64.5531C88.8905 64.7959 89.5785 64.9578 90.2665 64.9578ZM0.539734 50.3878H5.39639L9.16031 62.3271L13.6122 50.3878H17.8214L22.1923 62.3271L26.1181 50.3878H30.9748L24.6207 69.086H20.1283L15.6763 56.9038L11.1839 69.086H6.61056L0.539734 50.3878Z" fill="#351A55"/>
</g>
<defs>
<clipPath id="clip0_17_365">
<rect width="152.499" height="120" fill="white" transform="translate(0.539734)"/>
</clipPath>
</defs>
</svg>
