 <svg width="270" height="80" viewBox="0 0 270 80" fill="none" xmlns="http://www.w3.org/2000/svg">
                            <g clip-path="url(#clip0_25_661)">
                            <path fill-rule="evenodd" clip-rule="evenodd" d="M259.996 79.6718H10.0037C4.49023 79.6718 0 75.1816 0 69.7128V9.95898C0 4.47036 4.49023 0 10.0037 0H259.996C265.505 0 270 4.47036 270 9.95898V69.7128C270 75.1816 265.505 79.6718 259.996 79.6718Z" fill="black"/>
                            <path fill-rule="evenodd" clip-rule="evenodd" d="M259.996 1.59443C264.621 1.59443 268.406 5.3545 268.406 9.95898V69.7128C268.406 74.3173 264.646 78.0774 259.996 78.0774H10.0037C5.37934 78.0774 1.59443 74.3173 1.59443 69.7128V9.95898C1.59443 5.3545 5.3545 1.59443 10.0037 1.59443C10.0037 1.59443 259.996 1.59443 259.996 1.59443ZM259.996 0H10.0037C4.49023 0 0 4.49023 0 9.95898V69.7128C0 75.2015 4.49023 79.6718 10.0037 79.6718H259.996C265.505 79.6718 270 75.2015 270 69.7128V9.95898C270 4.49023 265.505 0 259.996 0Z" fill="#A6A6A6"/>
                            <path d="M142.237 26.3552C140.434 26.3552 138.914 25.7244 137.712 24.4826C136.52 23.2756 135.854 21.6116 135.884 19.9129C135.884 18.0999 136.5 16.5651 137.712 15.3482C138.909 14.1064 140.429 13.4756 142.232 13.4756C144.015 13.4756 145.535 14.1064 146.757 15.3482C147.969 16.6048 148.585 18.1397 148.585 19.9129C148.565 21.7309 147.949 23.2657 146.757 24.4776C145.56 25.7293 144.04 26.3552 142.237 26.3552ZM88.5877 26.3552C86.8244 26.3552 85.2945 25.7343 84.0428 24.5075C82.8011 23.2856 82.1703 21.7408 82.1703 19.9179C82.1703 18.095 82.8011 16.5502 84.0428 15.3283C85.2697 14.1014 86.7996 13.4806 88.5877 13.4806C89.4619 13.4806 90.3113 13.6544 91.1259 14.0071C91.9256 14.3498 92.5763 14.8167 93.0581 15.3879L93.1773 15.532L91.8312 16.8532L91.6921 16.6893C90.9322 15.7853 89.9139 15.3432 88.5678 15.3432C87.3658 15.3432 86.3178 15.7704 85.4535 16.6148C84.5843 17.4641 84.1422 18.5768 84.1422 19.9228C84.1422 21.2689 84.5843 22.3815 85.4535 23.2309C86.3178 24.0753 87.3658 24.5025 88.5678 24.5025C89.8493 24.5025 90.9272 24.0753 91.7666 23.2309C92.2633 22.7342 92.5713 22.0388 92.6806 21.1596H88.3642V19.302H94.5333L94.5581 19.4708C94.6028 19.7838 94.6475 20.1066 94.6475 20.4046C94.6475 22.1183 94.131 23.5041 93.1077 24.5273C91.9454 25.7393 90.4255 26.3552 88.5877 26.3552ZM159.92 26.0919H158.017L152.191 16.7688L152.241 18.4476V26.087H150.338V13.7438H152.509L152.569 13.8382L158.047 22.62L157.998 20.9461V13.7438H159.92V26.0919V26.0919ZM127.942 26.0919H126.015V15.6015H122.672V13.7438H131.28V15.6015H127.937V26.0919H127.942ZM121.102 26.0919H119.18V13.7438H121.102V26.0919ZM110.299 26.0919H108.377V15.6015H105.034V13.7438H113.642V15.6015H110.299V26.0919ZM103.817 26.0721H96.4456V13.7438H103.817V15.6015H98.3728V18.989H103.285V20.8269H98.3728V24.2144H103.817V26.0721ZM139.123 23.2061C139.982 24.0654 141.025 24.4975 142.237 24.4975C143.484 24.4975 144.502 24.0753 145.351 23.2061C146.196 22.3617 146.623 21.254 146.623 19.9179C146.623 18.5817 146.196 17.4691 145.356 16.6297C144.497 15.7704 143.449 15.3382 142.242 15.3382C140.995 15.3382 139.977 15.7604 139.133 16.6297C138.288 17.4741 137.861 18.5817 137.861 19.9179C137.861 21.254 138.283 22.3666 139.123 23.2061Z" fill="white"/>
                            <path fill-rule="evenodd" clip-rule="evenodd" d="M135.705 43.3324C131.011 43.3324 127.207 46.8938 127.207 51.8063C127.207 56.674 131.036 60.2801 135.705 60.2801C140.399 60.2801 144.204 56.6939 144.204 51.8063C144.204 46.8938 140.399 43.3324 135.705 43.3324ZM135.705 56.9223C133.137 56.9223 130.927 54.7964 130.927 51.7864C130.927 48.7316 133.142 46.6504 135.705 46.6504C138.273 46.6504 140.484 48.7316 140.484 51.7864C140.489 54.8163 138.273 56.9223 135.705 56.9223ZM117.163 43.3324C112.469 43.3324 108.665 46.8938 108.665 51.8063C108.665 56.674 112.494 60.2801 117.163 60.2801C121.857 60.2801 125.662 56.6939 125.662 51.8063C125.662 46.8938 121.852 43.3324 117.163 43.3324ZM117.163 56.9223C114.595 56.9223 112.385 54.7964 112.385 51.7864C112.385 48.7316 114.6 46.6504 117.163 46.6504C119.731 46.6504 121.942 48.7316 121.942 51.7864C121.942 54.8163 119.731 56.9223 117.163 56.9223ZM95.0995 45.9203V49.5065H103.707C103.444 51.5182 102.779 53.0033 101.76 54.0216C100.499 55.2832 98.5517 56.6541 95.1194 56.6541C89.8295 56.6541 85.6919 52.3824 85.6919 47.0925C85.6919 41.8026 89.8295 37.5309 95.1194 37.5309C97.9755 37.5309 100.057 38.6584 101.601 40.0989L104.145 37.5557C101.999 35.4994 99.1427 33.9248 95.1393 33.9248C87.8824 33.9248 81.7928 39.8356 81.7928 47.0726C81.7928 54.3295 87.8774 60.2205 95.1393 60.2205C99.0583 60.2205 101.999 58.939 104.323 56.525C106.693 54.1557 107.443 50.8128 107.443 48.1157C107.443 47.2763 107.378 46.5213 107.244 45.8805H95.0946C95.0995 45.8756 95.0995 45.9203 95.0995 45.9203ZM185.346 48.7118C184.636 46.8094 182.49 43.3126 178.089 43.3126C173.728 43.3126 170.102 46.7448 170.102 51.7864C170.102 56.5448 173.689 60.2602 178.512 60.2602C182.386 60.2602 184.641 57.8909 185.57 56.5001L182.694 54.5729C181.74 55.9885 180.414 56.9174 178.531 56.9174C176.629 56.9174 175.298 56.0531 174.414 54.3494L185.744 49.6555C185.744 49.6605 185.346 48.7118 185.346 48.7118ZM173.793 51.543C173.703 48.2697 176.336 46.6057 178.218 46.6057C179.704 46.6057 180.94 47.3359 181.363 48.3988L173.793 51.543ZM164.589 59.7536H168.309V34.8586H164.589V59.7536ZM158.479 45.215H158.345C157.506 44.2166 155.911 43.3126 153.875 43.3126C149.648 43.3126 145.754 47.0329 145.754 51.8112C145.754 56.5697 149.628 60.2453 153.875 60.2453C155.887 60.2453 157.506 59.3363 158.345 58.3181H158.479V59.535C158.479 62.7686 156.751 64.512 153.964 64.512C151.684 64.512 150.269 62.8729 149.693 61.502L146.459 62.853C147.388 65.0882 149.866 67.8549 153.959 67.8549C158.32 67.8549 162.016 65.2869 162.016 59.0234V43.8192H158.499V45.215C158.504 45.215 158.479 45.215 158.479 45.215ZM154.208 56.9223C151.64 56.9223 149.494 54.7766 149.494 51.8112C149.494 48.821 151.64 46.6554 154.208 46.6554C156.751 46.6554 158.723 48.8459 158.723 51.8112C158.748 54.7766 156.756 56.9223 154.208 56.9223ZM202.766 34.8586H193.87V59.7536H197.59V50.3261H202.771C206.888 50.3261 210.937 47.3409 210.937 42.6023C210.937 37.8637 206.903 34.8586 202.766 34.8586ZM202.875 46.8491H197.585V38.3058H202.875C205.662 38.3058 207.236 40.6055 207.236 42.5774C207.236 44.5295 205.642 46.8491 202.875 46.8491ZM225.848 43.2877C223.146 43.2877 220.359 44.4848 219.207 47.0925L222.505 48.4634C223.215 47.0925 224.517 46.6256 225.892 46.6256C227.82 46.6256 229.767 47.778 229.811 49.8343V50.0976C229.146 49.7201 227.686 49.1439 225.937 49.1439C222.376 49.1439 218.765 51.091 218.765 54.7418C218.765 58.0846 221.685 60.2304 224.939 60.2304C227.437 60.2304 228.813 59.1029 229.672 57.7965H229.806V59.7238H233.393V50.187C233.393 45.7464 230.095 43.2877 225.848 43.2877ZM225.381 56.9223C224.164 56.9223 222.46 56.3263 222.46 54.7964C222.46 52.8692 224.586 52.139 226.399 52.139C228.038 52.139 228.813 52.4917 229.787 52.9785C229.518 55.2137 227.631 56.9025 225.381 56.9223ZM246.476 43.8192L242.204 54.6176H242.07L237.645 43.8192H233.641L240.282 58.9141L236.497 67.3035H240.371L250.589 43.8192H246.476ZM212.988 59.7536H216.708V34.8586H212.988V59.7536Z" fill="white"/>
                            <path fill-rule="evenodd" clip-rule="evenodd" d="M20.7822 15.0057C20.2061 15.6266 19.8733 16.5753 19.8733 17.8171V61.8601C19.8733 63.1018 20.2061 64.0505 20.8021 64.6466L20.9561 64.7807L45.6325 40.1043V39.553L20.9362 14.8716L20.7822 15.0057Z" fill="url(#paint0_linear_25_661)"/>
                            <path fill-rule="evenodd" clip-rule="evenodd" d="M53.843 48.3544L45.6126 40.124V39.5478L53.843 31.3174L54.0219 31.4267L63.7573 36.96C66.5438 38.5296 66.5438 41.1224 63.7573 42.7118L54.0219 48.2452L53.843 48.3544Z" fill="url(#paint1_linear_25_661)"/>
                            <path fill-rule="evenodd" clip-rule="evenodd" d="M54.0219 48.2452L45.6126 39.8359L20.7822 64.6663C21.6912 65.6399 23.2161 65.7491 24.9198 64.8004L54.0219 48.2452Z" fill="url(#paint2_linear_25_661)"/>
                            <path fill-rule="evenodd" clip-rule="evenodd" d="M54.0219 31.4269L24.9198 14.8965C23.2161 13.923 21.6862 14.0571 20.7822 15.0306L45.6126 39.8362L54.0219 31.4269Z" fill="url(#paint3_linear_25_661)"/>
                            <path opacity="0.2" fill-rule="evenodd" clip-rule="evenodd" d="M53.8431 48.0664L24.9397 64.4875C23.3254 65.4164 21.8849 65.3518 20.9561 64.5074L20.8021 64.6614L20.9561 64.7955C21.8849 65.6349 23.3254 65.7045 24.9397 64.7756L54.0417 48.2452L53.8431 48.0664Z" fill="black"/>
                            <path opacity="0.12" fill-rule="evenodd" clip-rule="evenodd" d="M63.7573 42.4238L53.8182 48.0664L53.997 48.2452L63.7325 42.7119C65.1282 41.9171 65.8137 40.8741 65.8137 39.8359C65.7293 40.7896 65.019 41.6936 63.7573 42.4238Z" fill="black"/>
                            <path opacity="0.25" fill-rule="evenodd" clip-rule="evenodd" d="M24.9198 15.1845L63.7573 37.2482C65.019 37.9585 65.7293 38.8874 65.8385 39.8361C65.8385 38.798 65.1531 37.7549 63.7573 36.9602L24.9198 14.8964C22.1333 13.302 19.8733 14.6332 19.8733 17.8171V18.1052C19.8733 14.9163 22.1333 13.61 24.9198 15.1845Z" fill="white"/>
                            </g>
                            <defs>
                            <linearGradient id="paint0_linear_25_661" x1="43.4191" y1="17.3419" x2="3.89171" y2="27.874" gradientUnits="userSpaceOnUse">
                            <stop stop-color="#00A0FF"/>
                            <stop offset="0.00657" stop-color="#00A1FF"/>
                            <stop offset="0.2601" stop-color="#00BEFF"/>
                            <stop offset="0.5122" stop-color="#00D2FF"/>
                            <stop offset="0.7604" stop-color="#00DFFF"/>
                            <stop offset="1" stop-color="#00E3FF"/>
                            </linearGradient>
                            <linearGradient id="paint1_linear_25_661" x1="67.3912" y1="39.836" x2="19.196" y2="39.836" gradientUnits="userSpaceOnUse">
                            <stop stop-color="#FFE000"/>
                            <stop offset="0.4087" stop-color="#FFBD00"/>
                            <stop offset="0.7754" stop-color="#FFA500"/>
                            <stop offset="1" stop-color="#FF9C00"/>
                            </linearGradient>
                            <linearGradient id="paint2_linear_25_661" x1="49.4492" y1="44.4118" x2="17.7169" y2="97.82" gradientUnits="userSpaceOnUse">
                            <stop stop-color="#FF3A44"/>
                            <stop offset="1" stop-color="#C31162"/>
                            </linearGradient>
                            <linearGradient id="paint3_linear_25_661" x1="14.5297" y1="0.35641" x2="28.6867" y2="24.2093" gradientUnits="userSpaceOnUse">
                            <stop stop-color="#32A071"/>
                            <stop offset="0.0685" stop-color="#2DA771"/>
                            <stop offset="0.4762" stop-color="#15CF74"/>
                            <stop offset="0.8009" stop-color="#06E775"/>
                            <stop offset="1" stop-color="#00F076"/>
                            </linearGradient>
                            <clipPath id="clip0_25_661">
                            <rect width="270" height="79.6718" fill="white"/>
                            </clipPath>
                            </defs>
                        </svg>   