<svg width="687" height="680" viewBox="0 0 687 680" fill="none" xmlns="http://www.w3.org/2000/svg">
<path d="M577.277 130.372H552.474V155.175H577.277V130.372Z" fill="#FFF4DE"/>
<path d="M566.208 127.316H563.543V133.545H566.208V127.316Z" fill="#EF6737"/>
<path d="M537.06 130.372V180.754C537.06 183.004 536.166 185.163 534.575 186.754C532.983 188.345 530.825 189.239 528.575 189.239H484.964C487.137 189.133 489.187 188.194 490.688 186.618C492.188 185.041 493.024 182.948 493.023 180.772V130.372H537.06Z" fill="#D6EAF2"/>
<path d="M515.027 127.316H512.362V133.545H515.027V127.316Z" fill="#EF6737"/>
<path d="M501.474 142.549H527.554" stroke="#639AD6" stroke-width="1.74957" stroke-miterlimit="10"/>
<path d="M501.474 149.017H527.554" stroke="#639AD6" stroke-width="1.74957" stroke-miterlimit="10"/>
<path d="M501.474 155.479H527.554" stroke="#639AD6" stroke-width="1.74957" stroke-miterlimit="10"/>
<path d="M501.474 161.946H527.554" stroke="#639AD6" stroke-width="1.74957" stroke-miterlimit="10"/>
<path d="M501.474 168.414H527.554" stroke="#639AD6" stroke-width="1.74957" stroke-miterlimit="10"/>
<path d="M372.14 455.81L339.271 615.435H342.414L386.393 455.851" fill="#D6EAF2"/>
<path d="M488.702 452.043L522.218 615.435H519.174L475.236 455.781" fill="#D6EAF2"/>
<path d="M443.056 455.81L475.918 615.435H472.775L428.797 455.851" fill="#D6EAF2"/>
<path d="M524.591 377.412L504.763 436.343C502.75 442.326 498.909 447.525 493.781 451.206C488.653 454.888 482.499 456.865 476.187 456.86H363.911C357.599 456.864 351.445 454.887 346.317 451.205C341.19 447.524 337.348 442.325 335.334 436.343L319.005 387.868C318.345 385.907 318.162 383.817 318.469 381.771C318.777 379.725 319.567 377.781 320.775 376.101C321.982 374.42 323.572 373.052 325.413 372.107C327.254 371.163 329.294 370.67 331.363 370.67H343.931C346.804 370.682 349.585 369.653 351.757 367.772C353.93 365.891 355.347 363.286 355.746 360.441L363.071 308.449C363.916 302.443 366.902 296.944 371.48 292.965C376.058 288.987 381.92 286.795 387.985 286.796H489.075C492.674 286.796 496.231 287.568 499.507 289.06C502.782 290.553 505.699 292.73 508.061 295.446C510.423 298.162 512.175 301.352 513.198 304.803C514.222 308.253 514.494 311.883 513.995 315.448L507.708 360.307C507.527 361.595 507.625 362.907 507.994 364.154C508.363 365.401 508.995 366.555 509.848 367.537C510.701 368.519 511.754 369.307 512.937 369.848C514.121 370.388 515.406 370.668 516.707 370.67H519.739C520.551 370.668 521.352 370.86 522.075 371.229C522.798 371.599 523.423 372.135 523.897 372.794C524.372 373.453 524.682 374.216 524.803 375.019C524.923 375.822 524.851 376.642 524.591 377.412V377.412Z" fill="#D6EAF2"/>
<path d="M516.124 370.04H507.819C502.389 369.994 497.083 371.66 492.654 374.801C488.225 377.941 484.897 382.397 483.144 387.536L468.92 427.053C467.098 432.464 463.623 437.168 458.986 440.5C454.349 443.832 448.783 445.626 443.073 445.627H339.592" stroke="white" stroke-width="1.74957" stroke-miterlimit="10"/>
<path d="M427.933 154.458C453.483 155.041 443.05 181.903 457.548 186.609C467.812 189.939 480.724 194.844 480.45 215.436C480.222 232.425 478.747 234.792 491.711 242.047C509.475 251.962 504.681 285.378 468.868 284.189" stroke="#41465A" stroke-width="1.74957" stroke-miterlimit="10"/>
<path d="M388.988 173.791C389.612 172.088 394.82 149.577 428.744 153.542C454.125 156.511 443.907 185.221 455.921 189.274C465.03 192.342 479.033 197.002 477.534 217.542C476.297 234.483 474.682 236.787 487.191 244.771C504.337 255.758 497.561 288.802 461.881 285.478C426.201 282.153 372.799 283.431 370.384 276.514C368.635 271.44 353.547 241.412 375.493 228.407C382.095 224.493 394.283 219.74 392.989 212.136C390.364 196.739 382.445 191.625 388.988 173.791Z" fill="#252954"/>
<path d="M431.619 205.417C431.619 205.417 429.735 229.783 439.492 237.254L412.934 236.775C412.934 236.775 413.558 209.791 412.934 205.429L431.619 205.417Z" fill="#FFB3A4"/>
<path d="M418.9 225.251C428.965 225.251 437.125 219.29 437.125 211.937C437.125 204.584 428.965 198.623 418.9 198.623C408.835 198.623 400.675 204.584 400.675 211.937C400.675 219.29 408.835 225.251 418.9 225.251Z" fill="#242854"/>
<path d="M438.279 196.5C438.279 196.5 432.961 219.723 413.82 218.906C401.095 218.364 394.517 196.407 393.589 185.892C392.814 177.115 404.256 170.367 412.636 172.146C422.959 174.339 423.519 191.467 434.366 190.47L438.279 196.5Z" fill="#FFB3A4"/>
<path d="M407.289 187.385C402.88 188.509 398.585 190.04 394.458 191.957C393.814 189.786 393.371 187.561 393.134 185.309C392.551 178.894 398.506 173.581 405.014 171.86C405.696 172.082 406.402 172.327 407.143 172.601C410.508 173.843 405.142 180.282 407.289 187.385Z" fill="#EA786C"/>
<path d="M411.313 171.703C414.853 173.009 407.032 179.868 408.741 187.449C401.238 189.069 393.827 191.088 386.539 193.497C386.539 193.497 379.838 183.203 385.133 176.188C390.429 169.172 399.935 167.504 411.313 171.703Z" fill="#252954"/>
<path d="M434.506 197.626C438.059 197.626 440.939 194.746 440.939 191.193C440.939 187.641 438.059 184.761 434.506 184.761C430.953 184.761 428.073 187.641 428.073 191.193C428.073 194.746 430.953 197.626 434.506 197.626Z" fill="#FFB3A4"/>
<path d="M380.491 249.308C389.18 244.922 398.663 250.865 393.963 264.681C390.557 274.683 360.167 333.766 356.72 338.898C335.789 350.608 253.688 337.317 253.688 337.317C253.688 337.317 242.269 342.187 238.956 342.228C237.504 342.228 228.669 340.572 228.669 340.572C228.669 340.572 228.383 339.551 229.742 338.28C231.101 337.008 240.601 338.443 237.23 335.364C235.731 334.005 227.899 336.618 224.4 339.72C220.901 342.823 219.414 340.192 219.414 340.192C219.414 340.192 222.872 334.326 224.079 333.287C225.286 332.249 233.136 327.945 238.356 327.456C242.141 327.1 251.186 328.161 255.898 329.508C274.234 325.951 311.674 321.035 335.982 322.475C335.947 322.504 361.187 259.053 380.491 249.308Z" fill="#FFB3A4"/>
<path d="M438.215 228.663C438.215 228.663 443.814 238.875 474.548 249.425C474.548 249.425 474.437 262.64 469.451 280.019C461.56 307.522 451.372 345.978 451.524 361.123C451.524 361.123 418.381 370.67 384.194 361.123C384.194 361.123 384.451 315.238 381.541 313.162C378.631 311.085 371.113 291.84 373.603 282.293C376.094 272.746 386.008 247.815 386.008 247.815C386.008 247.815 406.297 241.744 408.035 229.701C418.099 230.63 428.239 230.281 438.215 228.663V228.663Z" fill="#FFF4DE"/>
<path d="M266.092 537.118C260.785 556.848 243.599 575.731 244.66 579.971C245.721 584.211 252.341 589.407 250.609 596.091C249.396 600.756 239.68 598.493 232.151 602.243C224.622 605.993 227.089 609.889 214.993 610.309C202.898 610.729 192.709 610.309 192.709 610.309C192.709 610.309 192.919 605.643 198.436 604.582C203.953 603.52 221.962 592.918 227.479 571.486C232.588 551.657 234.268 537.118 234.268 537.118H266.092Z" fill="#FFB3A4"/>
<path d="M266.092 537.118C264.523 542.95 261.788 548.689 259.036 554.031C246.742 553.121 238.262 550.118 232.699 547.394C233.824 540.979 234.268 537.147 234.268 537.147L266.092 537.118Z" fill="#3A193F"/>
<path d="M384.439 355.53L375.773 364.232C372.589 365.077 286.247 392.446 274.578 408.356C262.908 424.265 224.937 539.877 224.937 539.877C224.937 539.877 241.056 551.197 280.101 546.933C280.101 546.933 302.367 500.43 305.551 436.571C305.551 436.571 404.198 443.365 418.626 419.6C433.054 395.835 420.766 359.986 420.766 359.986C420.766 359.986 395.368 358.86 384.439 355.53Z" fill="#A1CBE2"/>
<path d="M249.326 610.513H186.481C184.912 610.513 183.641 611.784 183.641 613.353V613.639C183.641 615.207 184.912 616.479 186.481 616.479H249.326C250.894 616.479 252.166 615.207 252.166 613.639V613.353C252.166 611.784 250.894 610.513 249.326 610.513Z" fill="#EF6737"/>
<path d="M224.371 610.513C224.371 610.513 216.451 601.258 214.964 592.125C214.439 588.894 204.397 593.577 198.751 595.898C183.408 602.202 186.621 610.513 186.621 610.513H224.371Z" fill="#EF6737"/>
<path d="M338.35 538.005C342.146 546.298 353.268 573.894 353.513 583.155C353.909 596.79 329.782 608.437 328.15 609.796C325.438 612.052 328.645 613.796 328.645 613.796C328.645 613.796 373.755 608.664 378.8 606.331C383.844 603.999 372.227 591.122 371.055 581.651C369.883 572.18 371.568 545.878 369.486 534.162L338.35 538.005Z" fill="#FFB3A4"/>
<path d="M370.623 551.488C363.736 553.745 354.737 556.218 346.129 557.133C343.149 549.15 340.029 541.679 338.344 538.005L369.515 534.162C370.291 538.477 370.548 544.782 370.623 551.488Z" fill="#3A193F"/>
<path d="M451.576 355.53C451.576 355.53 479.511 404.962 458.936 429.561C436.722 456.125 344.17 446.141 344.17 446.141C344.17 446.141 374.076 478.584 378.531 548.38C378.531 548.38 347.955 554.113 329.298 549.231C329.298 549.231 302.437 459.42 300.244 434.261C297.491 402.629 399.532 381.407 399.532 381.407L403.655 358.662C403.655 358.662 424.673 361.654 451.576 355.53Z" fill="#A1CBE2"/>
<path d="M382.232 606.51L319.86 614.202C318.303 614.394 317.197 615.812 317.389 617.368L317.424 617.652C317.616 619.209 319.033 620.315 320.59 620.123L382.962 612.432C384.519 612.24 385.625 610.822 385.433 609.265L385.398 608.982C385.206 607.425 383.789 606.318 382.232 606.51Z" fill="#EF6737"/>
<path d="M357.432 609.586C357.432 609.586 351.6 595.589 337.405 597.339C323.21 599.088 319.967 614.21 319.967 614.21L357.432 609.586Z" fill="#EF6737"/>
<path d="M497.928 344.805C482.013 354.901 404.618 323.478 404.618 323.478C404.618 323.478 399.952 330.191 394.802 330.191C389.653 330.191 384.888 328.185 382.206 330.261C379.523 332.337 376.724 335.708 374.671 336.005C372.21 336.408 369.687 336.177 367.34 335.334C367.34 335.334 369.09 332.22 370.927 329.223C369.288 330.325 367.06 332.78 365.818 333.742C365.333 334.151 364.725 334.385 364.091 334.41C363.458 334.434 362.834 334.246 362.319 333.877C362.319 333.877 365.911 328.902 367.299 327.584C368.687 326.266 372.63 324.557 375.126 323.642C377.867 322.58 393.724 316.387 401.55 315.477C409.855 314.509 477.487 321.151 477.487 321.151C477.487 321.151 462.085 282.777 461.088 272.834C459.618 258.167 465.853 249.261 473.335 249.25C486.655 249.197 511.126 336.437 497.928 344.805Z" fill="#FFB3A4"/>
<path d="M369.836 335.953C369.778 335.954 369.721 335.938 369.673 335.906C369.639 335.885 369.61 335.857 369.587 335.824C369.564 335.791 369.547 335.754 369.539 335.715C369.53 335.676 369.529 335.636 369.536 335.597C369.543 335.557 369.558 335.52 369.579 335.486C370.116 334.646 374.869 327.234 376.549 326.4C379.465 324.965 383.261 323.07 383.261 323.07L383.535 323.618L376.823 326.948C375.528 327.59 371.527 333.567 370.093 335.813C370.066 335.856 370.028 335.892 369.983 335.916C369.938 335.941 369.887 335.953 369.836 335.953V335.953Z" fill="#DB7800"/>
<path d="M373.172 335.953C373.117 335.952 373.063 335.937 373.016 335.909C372.969 335.881 372.931 335.84 372.905 335.792C372.879 335.743 372.867 335.689 372.87 335.634C372.873 335.579 372.891 335.526 372.921 335.48C373.108 335.2 377.558 328.704 379.26 327.864C382.176 326.423 385.973 324.534 385.973 324.534L386.247 325.076C386.247 325.076 382.445 326.972 379.535 328.406C378.234 329.048 374.682 333.976 373.423 335.824C373.394 335.864 373.356 335.896 373.313 335.919C373.269 335.941 373.221 335.953 373.172 335.953V335.953Z" fill="#DB7800"/>
<path d="M642.198 347.418H52.0731V360.068H642.198V347.418Z" fill="#FFF4DE"/>
<path d="M625.845 572.728H552.363V581.598H625.845V572.728Z" fill="#F4E8CE"/>
<path d="M615.627 360.487H562.481V372.245H615.627V360.487Z" fill="#FFF4DE"/>
<path d="M636.197 616.473C634.934 616.474 633.711 616.032 632.74 615.224C631.77 614.416 631.113 613.294 630.884 612.052L590.276 391.117C590.224 390.831 590.073 390.573 589.85 390.387C589.626 390.201 589.345 390.099 589.054 390.099C588.764 390.099 588.482 390.201 588.259 390.387C588.036 390.573 587.885 390.831 587.833 391.117L547.219 612.052C546.991 613.295 546.335 614.418 545.364 615.225C544.393 616.033 543.169 616.475 541.906 616.473V616.473C541.115 616.473 540.332 616.299 539.615 615.964C538.898 615.628 538.264 615.139 537.757 614.53C537.25 613.922 536.883 613.21 536.682 612.444C536.481 611.678 536.451 610.878 536.593 610.099L580.391 371.831H597.712L641.509 610.099C641.653 610.878 641.624 611.679 641.423 612.445C641.223 613.211 640.856 613.924 640.349 614.532C639.841 615.141 639.206 615.63 638.489 615.966C637.771 616.301 636.989 616.474 636.197 616.473Z" fill="#FFF4DE"/>
<path d="M142.013 572.728H68.5307V581.598H142.013V572.728Z" fill="#F4E8CE"/>
<path d="M131.789 360.487H78.6432V372.245H131.789V360.487Z" fill="#FFF4DE"/>
<path d="M152.364 616.473C151.102 616.474 149.879 616.032 148.908 615.224C147.937 614.416 147.281 613.294 147.051 612.052L106.438 391.122C106.386 390.837 106.235 390.578 106.011 390.392C105.788 390.206 105.507 390.105 105.216 390.105C104.926 390.105 104.644 390.206 104.421 390.392C104.198 390.578 104.047 390.837 103.995 391.122L63.387 612.052C63.1579 613.294 62.501 614.416 61.5303 615.224C60.5597 616.032 59.3368 616.474 58.0741 616.473C57.282 616.474 56.4994 616.301 55.7818 615.966C55.0642 615.63 54.4293 615.141 53.9222 614.532C53.415 613.924 53.0481 613.211 52.8475 612.445C52.6468 611.679 52.6174 610.878 52.7612 610.099L96.553 371.831H113.88L157.677 610.099C157.82 610.878 157.79 611.678 157.589 612.444C157.388 613.21 157.021 613.922 156.514 614.53C156.007 615.139 155.372 615.628 154.655 615.964C153.938 616.299 153.156 616.473 152.364 616.473V616.473Z" fill="#FFF4DE"/>
<path d="M216.195 241.592C219.297 241.592 221.443 238.572 221.443 235.393V217.594C221.444 216.773 221.283 215.96 220.97 215.201C220.656 214.442 220.196 213.753 219.616 213.172C219.036 212.591 218.347 212.13 217.589 211.815C216.831 211.5 216.018 211.337 215.197 211.337H174.671C173.85 211.337 173.036 211.498 172.278 211.813C171.519 212.128 170.829 212.589 170.249 213.17C169.668 213.751 169.208 214.441 168.894 215.2C168.58 215.959 168.419 216.773 168.42 217.594V235.393C168.42 237.051 169.078 238.641 170.251 239.814C171.423 240.986 173.013 241.645 174.671 241.645H198.425C204.257 241.645 207.371 250.976 207.371 250.976C207.371 250.976 209.365 241.592 216.195 241.592Z" fill="#FFF4DE"/>
<path d="M183.343 228.669C184.632 228.669 185.676 227.625 185.676 226.336C185.676 225.048 184.632 224.003 183.343 224.003C182.055 224.003 181.011 225.048 181.011 226.336C181.011 227.625 182.055 228.669 183.343 228.669Z" fill="#EF6737"/>
<path d="M194.926 228.821C196.214 228.821 197.258 227.776 197.258 226.488C197.258 225.199 196.214 224.155 194.926 224.155C193.637 224.155 192.593 225.199 192.593 226.488C192.593 227.776 193.637 228.821 194.926 228.821Z" fill="#EF6737"/>
<path d="M206.508 228.821C207.796 228.821 208.84 227.776 208.84 226.488C208.84 225.199 207.796 224.155 206.508 224.155C205.219 224.155 204.175 225.199 204.175 226.488C204.175 227.776 205.219 228.821 206.508 228.821Z" fill="#EF6737"/>
<path d="M295.596 263.544H200.763C199.716 263.542 198.683 263.795 197.755 264.279C196.826 264.763 196.028 265.465 195.429 266.324C194.83 267.184 194.448 268.175 194.316 269.215C194.184 270.254 194.305 271.309 194.669 272.292L218.58 337.259H329.631L304.904 270.017C304.2 268.116 302.931 266.476 301.266 265.319C299.602 264.161 297.623 263.542 295.596 263.544V263.544Z" fill="#EF6737"/>
<path d="M293.73 266.839H201.259C200.24 266.839 199.236 267.085 198.332 267.557C197.429 268.028 196.652 268.711 196.069 269.547C195.486 270.383 195.114 271.348 194.984 272.359C194.854 273.37 194.97 274.397 195.322 275.353L218.65 338.705H326.919L302.81 273.172C302.125 271.315 300.888 269.712 299.264 268.579C297.641 267.447 295.709 266.839 293.73 266.839Z" fill="#EF6737"/>
<path d="M218.364 337.242H400.273C401.493 337.242 402.702 337.482 403.83 337.949C404.958 338.416 405.983 339.101 406.846 339.964C407.709 340.827 408.394 341.852 408.861 342.98C409.328 344.108 409.569 345.317 409.569 346.538V346.788H227.66C225.195 346.788 222.83 345.809 221.087 344.066C219.343 342.322 218.364 339.958 218.364 337.492V337.242Z" fill="#EF6737"/>
<path d="M266.412 310.365C269.809 306.593 268.788 300.137 264.133 295.945C259.477 291.753 252.95 291.413 249.553 295.185C246.157 298.958 247.177 305.414 251.833 309.606C256.488 313.798 263.016 314.138 266.412 310.365Z" fill="#FFEBBF"/>
<path d="M353.11 340.659H345.36V343.441H353.11V340.659Z" fill="#3A193F"/>
<path d="M367.917 340.659H360.167V343.441H367.917V340.659Z" fill="#EF6737"/>
<path d="M553.255 320.667H550.258V314.596H522.9V342.228C522.899 342.91 523.033 343.585 523.294 344.215C523.554 344.845 523.937 345.418 524.419 345.9C524.901 346.382 525.473 346.764 526.103 347.025C526.733 347.285 527.409 347.419 528.091 347.418H545.067C546.444 347.418 547.764 346.871 548.737 345.898C549.711 344.925 550.258 343.604 550.258 342.228V332.809H553.255C554.865 332.809 556.41 332.17 557.548 331.031C558.687 329.893 559.326 328.348 559.326 326.738C559.326 325.128 558.687 323.584 557.548 322.445C556.41 321.307 554.865 320.667 553.255 320.667V320.667ZM555.39 329.001C555.093 329.298 554.74 329.534 554.352 329.694C553.963 329.854 553.547 329.936 553.127 329.934H550.258V323.519H553.127C553.76 323.518 554.379 323.705 554.906 324.056C555.432 324.407 555.843 324.906 556.085 325.491C556.327 326.076 556.391 326.719 556.267 327.34C556.143 327.961 555.838 328.531 555.39 328.978V329.001Z" fill="white" stroke="#EF6737" stroke-width="1.74957" stroke-miterlimit="10"/>
<path d="M538.664 312.007C537.223 310.531 529.677 305.592 531.362 298.483C533.048 291.374 543.732 292.913 543.405 284.97C543.125 278.234 537.223 280.934 535.929 283.39C535.929 283.39 536.71 274.502 544.828 277.47C558.533 282.48 542.624 296.716 538.075 300.652C533.899 304.274 538.664 312.007 538.664 312.007Z" fill="#FFF4DE"/>
<path d="M548.246 292.954C548.246 292.954 546.496 298.955 539.375 301.906C539.375 301.906 550.304 301.906 548.246 292.954Z" fill="#FFF4DE"/>
<path d="M627.075 347.418C627.075 347.418 647.58 235.078 544.881 219.396" stroke="#EF6737" stroke-width="1.74957" stroke-miterlimit="10"/>
<path d="M627.478 346.794H572.81C576.624 337.947 587.389 331.567 600.144 331.567C612.898 331.567 623.664 337.947 627.478 346.794Z" fill="#EF6737"/>
<path d="M627.478 346.794H620.596C616.975 338.402 606.734 332.349 594.662 332.349C593.81 332.349 592.97 332.349 592.142 332.442C594.769 331.859 597.453 331.565 600.144 331.567C612.863 331.567 623.664 337.947 627.478 346.794Z" fill="#EF6737"/>
<path d="M545.761 220.446C545.266 222.668 543.516 224.406 541.032 225.461C538.186 226.674 534.372 226.995 530.406 226.115C526.44 225.234 523.122 223.362 521.04 221.029C519.232 219.023 518.375 216.708 518.865 214.486C519.92 209.715 526.796 207.178 534.226 208.817C541.656 210.456 546.817 215.664 545.761 220.446Z" fill="#EF6737"/>
<path d="M545.761 220.446C545.301 222.528 543.726 224.19 541.475 225.263C542.533 224.428 543.279 223.261 543.592 221.951C544.577 217.495 539.76 212.649 532.838 211.115C526.306 209.675 520.229 211.698 518.73 215.664C518.737 215.272 518.782 214.881 518.865 214.498C519.92 209.721 526.796 207.184 534.226 208.823C541.656 210.462 546.817 215.67 545.761 220.446Z" fill="#EF6737"/>
<path d="M539.527 224.348C536.684 225.353 533.616 225.541 530.671 224.89C527.727 224.238 525.024 222.773 522.871 220.662C521.909 218.562 527.589 217.827 532.015 218.807C536.442 219.787 541.358 223.239 539.527 224.348Z" fill="#EF6737"/>
<path d="M139.423 172.933H333.818V190.732L139.383 174.304C138.869 174.251 138.904 172.933 139.423 172.933Z" fill="#FFF4DE"/>
<path d="M312.858 84.9009H304.682C303.023 84.9009 301.679 86.2455 301.679 87.9043V154.884C301.679 156.542 303.023 157.887 304.682 157.887H312.858C314.517 157.887 315.862 156.542 315.862 154.884V87.9043C315.862 86.2455 314.517 84.9009 312.858 84.9009Z" fill="white" stroke="#EF6737" stroke-width="1.74957" stroke-miterlimit="10"/>
<path d="M297.87 91.0768H288.108C286.488 91.0768 285.174 92.3902 285.174 94.0103V156.4C285.174 158.02 286.488 159.333 288.108 159.333H297.87C299.49 159.333 300.804 158.02 300.804 156.4V94.0103C300.804 92.3902 299.49 91.0768 297.87 91.0768Z" fill="#EF6737"/>
<path d="M282.439 74.5026H279.803C278.293 74.5026 277.068 75.7271 277.068 77.2377V156.598C277.068 158.109 278.293 159.333 279.803 159.333H282.439C283.95 159.333 285.174 158.109 285.174 156.598V77.2377C285.174 75.7271 283.95 74.5026 282.439 74.5026Z" fill="#D6EAF2"/>
<path d="M273.487 96.0223H266.466C264.81 96.0223 263.468 97.3644 263.468 99.0199V155.473C263.468 157.128 264.81 158.47 266.466 158.47H273.487C275.143 158.47 276.485 157.128 276.485 155.473V99.0199C276.485 97.3644 275.143 96.0223 273.487 96.0223Z" fill="white" stroke="#EF6737" stroke-width="1.74957" stroke-miterlimit="10"/>
<path d="M239.26 159.333H227.899L256.318 83.1863C256.428 82.8912 256.626 82.6366 256.884 82.4563C257.142 82.2761 257.449 82.1788 257.764 82.1774H265.824C266.076 82.1808 266.323 82.2449 266.545 82.3642C266.767 82.4834 266.957 82.6544 267.099 82.8627C267.241 83.0709 267.331 83.3103 267.36 83.5605C267.39 83.8107 267.359 84.0644 267.27 84.3002L239.26 159.333Z" fill="#EF6737"/>
<path d="M333.264 159.333H139.849V172.094H333.264V159.333Z" fill="white" stroke="#EF6737" stroke-width="1.74957" stroke-miterlimit="10"/>
<path d="M159.398 131.043H208.199V136.402C208.199 142.486 205.782 148.32 201.481 152.621C197.179 156.923 191.345 159.339 185.262 159.339H182.311C176.228 159.339 170.394 156.923 166.092 152.621C161.791 148.32 159.374 142.486 159.374 136.402V131.043H159.398Z" fill="#EF6737"/>
<path d="M203.318 131.043H167.16C167.16 131.043 156.581 139.668 150.545 132.594C146.171 127.474 167.096 127.246 167.096 127.246L167.726 127.025C167.726 127.025 158.75 108.176 167.236 105.033C173.068 102.857 174.514 118.825 174.817 124.01C177.902 122.721 183.921 120.86 184.44 125.759C184.44 125.759 185.11 105.587 193.561 107.511C200.588 109.115 190.167 128.074 190.167 128.074L190.896 128.518C190.896 128.518 210.205 114.416 214.941 117.694C218.521 120.172 203.318 131.043 203.318 131.043Z" fill="#A1CBE2"/>
<path d="M172.694 131.043C172.694 131.043 173.068 113.652 179.617 114.13C186.166 114.609 177.039 131.043 177.039 131.043H172.694Z" fill="#D6EAF2"/>
<path d="M172.694 131.043C172.694 131.043 166.128 114.632 157.228 118.837C148.533 122.919 167.236 131.043 167.236 131.043H172.694Z" fill="#D6EAF2"/>
<path d="M186.189 131.043C186.189 131.043 192.085 116.259 201.434 117.664C210.783 119.07 189.893 131.043 189.893 131.043H186.189Z" fill="#D6EAF2"/>
<path d="M195.806 131.043C195.806 131.043 214.095 121.834 217.384 127.386C220.673 132.938 195.806 131.043 195.806 131.043Z" fill="#D6EAF2"/>
<path d="M412.007 209.313C412.007 209.313 416.824 209.861 420.684 204.105" stroke="#3A1A3F" stroke-width="1.74957" stroke-linecap="round" stroke-linejoin="round"/>
<path d="M431.176 192.797C431.176 192.797 431.176 187.478 435.842 187.548" stroke="#E2564B" stroke-width="1.74957" stroke-linecap="round" stroke-linejoin="round"/>
<path d="M432.255 189.922L435.363 191.374" stroke="#E2564B" stroke-width="1.74957" stroke-linecap="round" stroke-linejoin="round"/>
<path d="M439.492 198.296C440.797 198.296 441.854 197.239 441.854 195.934C441.854 194.63 440.797 193.573 439.492 193.573C438.188 193.573 437.13 194.63 437.13 195.934C437.13 197.239 438.188 198.296 439.492 198.296Z" fill="#FFCDC5"/>
<path d="M408.828 193.573V202.688L411.26 203.673" stroke="#E2564B" stroke-width="1.74957" stroke-linecap="round" stroke-linejoin="round"/>
<path d="M412.934 185.711C412.934 185.711 415.599 183.647 420.2 185.711" stroke="#3A1A3F" stroke-width="1.74957" stroke-linecap="round" stroke-linejoin="round"/>
<path d="M417.389 194.297C418.262 194.144 418.809 193.104 418.611 191.975C418.413 190.846 417.545 190.054 416.673 190.207C415.8 190.36 415.253 191.399 415.451 192.529C415.649 193.658 416.517 194.45 417.389 194.297Z" fill="#242854"/>
<path d="M402.765 198.013C403.627 197.81 404.113 196.741 403.851 195.625C403.588 194.509 402.676 193.768 401.814 193.971C400.952 194.174 400.466 195.243 400.728 196.36C400.991 197.476 401.903 198.216 402.765 198.013Z" fill="#242854"/>
<path d="M329.298 549.225C329.298 549.225 302.437 459.414 300.244 434.255C297.491 402.629 399.532 381.407 399.532 381.407" stroke="#639AD6" stroke-width="1.74957" stroke-miterlimit="10"/>
</svg>
