 <svg width="270" height="80" viewBox="0 0 270 80" fill="none" xmlns="http://www.w3.org/2000/svg">
                            <path d="M260.394 80H9.458C4.244 80 0 75.744 0 70.534V9.452C0 4.24 4.244 0 9.458 0H260.394C265.606 0 270 4.24 270 9.452V70.534C270 75.744 265.606 80 260.394 80Z" fill="#A6A6A6"/>
                            <path d="M268.064 70.5363C268.064 74.7683 264.636 78.1963 260.396 78.1963H9.45803C5.22003 78.1963 1.78003 74.7683 1.78003 70.5363V9.45027C1.78003 5.22027 5.22003 1.78027 9.45803 1.78027H260.394C264.636 1.78027 268.062 5.22027 268.062 9.45027L268.064 70.5363Z" fill="black"/>
                            <path d="M60.256 39.5674C60.198 33.1214 65.534 29.9854 65.778 29.8394C62.756 25.4334 58.072 24.8314 56.426 24.7834C52.492 24.3694 48.676 27.1374 46.672 27.1374C44.628 27.1374 41.542 24.8234 38.216 24.8914C33.936 24.9574 29.932 27.4354 27.736 31.2834C23.204 39.1294 26.584 50.6594 30.926 57.0014C33.098 60.1074 35.636 63.5754 38.958 63.4534C42.208 63.3194 43.422 61.3814 47.344 61.3814C51.23 61.3814 52.37 63.4534 55.758 63.3754C59.246 63.3194 61.442 60.2554 63.538 57.1214C66.048 53.5614 67.056 50.0554 67.096 49.8754C67.014 49.8474 60.322 47.2934 60.256 39.5674Z" fill="white"/>
                            <path d="M53.856 20.6116C55.604 18.4256 56.8 15.4516 56.468 12.4336C53.938 12.5456 50.774 14.1836 48.952 16.3216C47.34 18.2056 45.9 21.2936 46.272 24.1976C49.114 24.4096 52.032 22.7636 53.856 20.6116Z" fill="white"/>
                            <path d="M107.29 63.0076H102.748L100.26 55.1896H91.612L89.242 63.0076H84.82L93.388 36.3916H98.68L107.29 63.0076ZM99.51 51.9096L97.26 44.9596C97.022 44.2496 96.576 42.5776 95.918 39.9456H95.838C95.576 41.0776 95.154 42.7496 94.574 44.9596L92.364 51.9096H99.51V51.9096Z" fill="white"/>
                            <path d="M129.324 53.1759C129.324 56.4399 128.442 59.0199 126.678 60.9139C125.098 62.5999 123.136 63.4419 120.794 63.4419C118.266 63.4419 116.45 62.5339 115.344 60.7179H115.264V70.8279H111V50.1339C111 48.0819 110.946 45.9759 110.842 43.8159H114.592L114.83 46.8579H114.91C116.332 44.5659 118.49 43.4219 121.386 43.4219C123.65 43.4219 125.54 44.3159 127.052 46.1059C128.568 47.8979 129.324 50.2539 129.324 53.1759ZM124.98 53.3319C124.98 51.4639 124.56 49.9239 123.716 48.7119C122.794 47.4479 121.556 46.8159 120.004 46.8159C118.952 46.8159 117.996 47.1679 117.142 47.8619C116.286 48.5619 115.726 49.4759 115.464 50.6079C115.332 51.1359 115.266 51.5679 115.266 51.9079V55.1079C115.266 56.5039 115.694 57.6819 116.55 58.6439C117.406 59.6059 118.518 60.0859 119.886 60.0859C121.492 60.0859 122.742 59.4659 123.636 58.2299C124.532 56.9919 124.98 55.3599 124.98 53.3319Z" fill="white"/>
                            <path d="M151.398 53.1759C151.398 56.4399 150.516 59.0199 148.75 60.9139C147.172 62.5999 145.21 63.4419 142.868 63.4419C140.34 63.4419 138.524 62.5339 137.42 60.7179H137.34V70.8279H133.076V50.1339C133.076 48.0819 133.022 45.9759 132.918 43.8159H136.668L136.906 46.8579H136.986C138.406 44.5659 140.564 43.4219 143.462 43.4219C145.724 43.4219 147.614 44.3159 149.13 46.1059C150.64 47.8979 151.398 50.2539 151.398 53.1759ZM147.054 53.3319C147.054 51.4639 146.632 49.9239 145.788 48.7119C144.866 47.4479 143.632 46.8159 142.078 46.8159C141.024 46.8159 140.07 47.1679 139.214 47.8619C138.358 48.5619 137.8 49.4759 137.538 50.6079C137.408 51.1359 137.34 51.5679 137.34 51.9079V55.1079C137.34 56.5039 137.768 57.6819 138.62 58.6439C139.476 59.6039 140.588 60.0859 141.96 60.0859C143.566 60.0859 144.816 59.4659 145.71 58.2299C146.606 56.9919 147.054 55.3599 147.054 53.3319Z" fill="white"/>
                            <path d="M176.078 55.544C176.078 57.808 175.292 59.65 173.714 61.072C171.98 62.626 169.566 63.402 166.464 63.402C163.6 63.402 161.304 62.85 159.566 61.744L160.554 58.19C162.426 59.322 164.48 59.89 166.718 59.89C168.324 59.89 169.574 59.526 170.472 58.802C171.366 58.078 171.812 57.106 171.812 55.894C171.812 54.814 171.444 53.904 170.706 53.166C169.972 52.428 168.746 51.742 167.034 51.108C162.374 49.37 160.046 46.824 160.046 43.476C160.046 41.288 160.862 39.494 162.496 38.098C164.124 36.7 166.296 36.002 169.012 36.002C171.434 36.002 173.446 36.424 175.052 37.266L173.986 40.742C172.486 39.926 170.79 39.518 168.892 39.518C167.392 39.518 166.22 39.888 165.38 40.624C164.67 41.282 164.314 42.084 164.314 43.034C164.314 44.086 164.72 44.956 165.536 45.64C166.246 46.272 167.536 46.956 169.408 47.694C171.698 48.616 173.38 49.694 174.462 50.93C175.54 52.162 176.078 53.704 176.078 55.544Z" fill="white"/>
                            <path d="M190.176 47.0162H185.476V56.3342C185.476 58.7042 186.304 59.8882 187.964 59.8882C188.726 59.8882 189.358 59.8222 189.858 59.6902L189.976 62.9282C189.136 63.2422 188.03 63.4002 186.66 63.4002C184.976 63.4002 183.66 62.8862 182.71 61.8602C181.764 60.8322 181.288 59.1082 181.288 56.6862V47.0122H178.488V43.8122H181.288V40.2982L185.476 39.0342V43.8122H190.176V47.0162Z" fill="white"/>
                            <path d="M211.382 53.2538C211.382 56.2038 210.538 58.6258 208.854 60.5198C207.088 62.4698 204.744 63.4418 201.822 63.4418C199.006 63.4418 196.764 62.5078 195.092 60.6398C193.42 58.7718 192.584 56.4138 192.584 53.5718C192.584 50.5978 193.444 48.1618 195.17 46.2678C196.892 44.3718 199.216 43.4238 202.138 43.4238C204.954 43.4238 207.22 44.3578 208.93 46.2278C210.566 48.0418 211.382 50.3838 211.382 53.2538ZM206.958 53.3918C206.958 51.6218 206.58 50.1038 205.814 48.8378C204.92 47.3058 203.642 46.5418 201.986 46.5418C200.272 46.5418 198.97 47.3078 198.076 48.8378C197.31 50.1058 196.932 51.6478 196.932 53.4718C196.932 55.2418 197.31 56.7598 198.076 58.0238C198.998 59.5558 200.286 60.3198 201.948 60.3198C203.576 60.3198 204.854 59.5398 205.776 57.9838C206.562 56.6938 206.958 55.1598 206.958 53.3918Z" fill="white"/>
                            <path d="M225.242 47.5659C224.82 47.4879 224.37 47.4479 223.898 47.4479C222.398 47.4479 221.238 48.0139 220.422 49.1479C219.712 50.1479 219.356 51.4119 219.356 52.9379V63.0079H215.094L215.134 49.8599C215.134 47.6479 215.08 45.6339 214.974 43.8179H218.688L218.844 47.4899H218.962C219.412 46.2279 220.122 45.2119 221.094 44.4499C222.044 43.7639 223.07 43.4219 224.176 43.4219C224.57 43.4219 224.926 43.4499 225.242 43.4999V47.5659Z" fill="white"/>
                            <path d="M244.312 52.5037C244.312 53.2677 244.262 53.9117 244.156 54.4377H231.364C231.414 56.3337 232.032 57.7837 233.22 58.7837C234.298 59.6777 235.692 60.1257 237.404 60.1257C239.298 60.1257 241.026 59.8237 242.58 59.2177L243.248 62.1777C241.432 62.9697 239.288 63.3637 236.814 63.3637C233.838 63.3637 231.502 62.4877 229.802 60.7377C228.106 58.9877 227.256 56.6377 227.256 53.6897C227.256 50.7957 228.046 48.3857 229.628 46.4637C231.284 44.4117 233.522 43.3857 236.338 43.3857C239.104 43.3857 241.198 44.4117 242.62 46.4637C243.746 48.0937 244.312 50.1097 244.312 52.5037ZM240.246 51.3977C240.274 50.1337 239.996 49.0417 239.418 48.1197C238.68 46.9337 237.546 46.3417 236.02 46.3417C234.626 46.3417 233.492 46.9197 232.626 48.0797C231.916 49.0017 231.494 50.1077 231.364 51.3957H240.246V51.3977Z" fill="white"/>
                            <path d="M98.1 20.0184C98.1 22.3724 97.394 24.1444 95.984 25.3344C94.678 26.4324 92.822 26.9824 90.418 26.9824C89.226 26.9824 88.206 26.9304 87.352 26.8264V13.9644C88.466 13.7844 89.666 13.6924 90.962 13.6924C93.252 13.6924 94.978 14.1904 96.142 15.1864C97.446 16.3124 98.1 17.9224 98.1 20.0184ZM95.89 20.0764C95.89 18.5504 95.486 17.3804 94.678 16.5644C93.87 15.7504 92.69 15.3424 91.136 15.3424C90.476 15.3424 89.914 15.3864 89.448 15.4784V25.2564C89.706 25.2964 90.178 25.3144 90.864 25.3144C92.468 25.3144 93.706 24.8684 94.578 23.9764C95.45 23.0844 95.89 21.7844 95.89 20.0764Z" fill="white"/>
                            <path d="M109.818 22.0741C109.818 23.5241 109.404 24.7121 108.576 25.6441C107.708 26.6021 106.558 27.0801 105.122 27.0801C103.738 27.0801 102.636 26.6221 101.814 25.7021C100.994 24.7841 100.584 23.6261 100.584 22.2301C100.584 20.7701 101.006 19.5721 101.854 18.6421C102.702 17.7121 103.842 17.2461 105.278 17.2461C106.662 17.2461 107.774 17.7041 108.616 18.6221C109.416 19.5141 109.818 20.6661 109.818 22.0741ZM107.644 22.1421C107.644 21.2721 107.456 20.5261 107.082 19.9041C106.642 19.1521 106.016 18.7761 105.202 18.7761C104.36 18.7761 103.72 19.1521 103.28 19.9041C102.904 20.5261 102.718 21.2841 102.718 22.1801C102.718 23.0501 102.906 23.7961 103.28 24.4181C103.734 25.1701 104.366 25.5461 105.182 25.5461C105.982 25.5461 106.61 25.1641 107.062 24.3981C107.45 23.7641 107.644 23.0121 107.644 22.1421Z" fill="white"/>
                            <path d="M125.53 17.4385L122.58 26.8665H120.66L119.438 22.7725C119.128 21.7505 118.876 20.7345 118.68 19.7265H118.642C118.46 20.7625 118.208 21.7765 117.884 22.7725L116.586 26.8665H114.644L111.87 17.4385H114.024L115.09 21.9205C115.348 22.9805 115.56 23.9905 115.73 24.9465H115.768C115.924 24.1585 116.182 23.1545 116.546 21.9405L117.884 17.4405H119.592L120.874 21.8445C121.184 22.9185 121.436 23.9525 121.63 24.9485H121.688C121.83 23.9785 122.044 22.9445 122.328 21.8445L123.472 17.4405H125.53V17.4385Z" fill="white"/>
                            <path d="M136.396 26.8662H134.3V21.4662C134.3 19.8022 133.668 18.9702 132.4 18.9702C131.778 18.9702 131.276 19.1982 130.886 19.6562C130.5 20.1142 130.304 20.6542 130.304 21.2722V26.8642H128.208V20.1322C128.208 19.3042 128.182 18.4062 128.132 17.4342H129.974L130.072 18.9082H130.13C130.374 18.4502 130.738 18.0722 131.216 17.7702C131.784 17.4182 132.42 17.2402 133.116 17.2402C133.996 17.2402 134.728 17.5242 135.31 18.0942C136.034 18.7922 136.396 19.8342 136.396 21.2182V26.8662V26.8662Z" fill="white"/>
                            <path d="M142.176 26.8663H140.082V13.1123H142.176V26.8663Z" fill="white"/>
                            <path d="M154.516 22.0741C154.516 23.5241 154.102 24.7121 153.274 25.6441C152.406 26.6021 151.254 27.0801 149.82 27.0801C148.434 27.0801 147.332 26.6221 146.512 25.7021C145.692 24.7841 145.282 23.6261 145.282 22.2301C145.282 20.7701 145.704 19.5721 146.552 18.6421C147.4 17.7121 148.54 17.2461 149.974 17.2461C151.36 17.2461 152.47 17.7041 153.314 18.6221C154.114 19.5141 154.516 20.6661 154.516 22.0741ZM152.34 22.1421C152.34 21.2721 152.152 20.5261 151.778 19.9041C151.34 19.1521 150.712 18.7761 149.9 18.7761C149.056 18.7761 148.416 19.1521 147.978 19.9041C147.602 20.5261 147.416 21.2841 147.416 22.1801C147.416 23.0501 147.604 23.7961 147.978 24.4181C148.432 25.1701 149.064 25.5461 149.88 25.5461C150.68 25.5461 151.306 25.1641 151.758 24.3981C152.148 23.7641 152.34 23.0121 152.34 22.1421Z" fill="white"/>
                            <path d="M164.66 26.8661H162.778L162.622 25.7801H162.564C161.92 26.6461 161.002 27.0801 159.81 27.0801C158.92 27.0801 158.2 26.7941 157.658 26.2261C157.166 25.7101 156.92 25.0681 156.92 24.3061C156.92 23.1541 157.4 22.2761 158.366 21.6681C159.33 21.0601 160.686 20.7621 162.432 20.7761V20.6001C162.432 19.3581 161.78 18.7381 160.474 18.7381C159.544 18.7381 158.724 18.9721 158.016 19.4361L157.59 18.0601C158.466 17.5181 159.548 17.2461 160.824 17.2461C163.288 17.2461 164.524 18.5461 164.524 21.1461V24.6181C164.524 25.5601 164.57 26.3101 164.66 26.8661ZM162.484 23.6261V22.1721C160.172 22.1321 159.016 22.7661 159.016 24.0721C159.016 24.5641 159.148 24.9321 159.418 25.1781C159.688 25.4241 160.032 25.5461 160.442 25.5461C160.902 25.5461 161.332 25.4001 161.724 25.1101C162.118 24.8181 162.36 24.4481 162.45 23.9941C162.472 23.8921 162.484 23.7681 162.484 23.6261Z" fill="white"/>
                            <path d="M176.57 26.8663H174.71L174.612 25.3523H174.554C173.96 26.5043 172.948 27.0803 171.526 27.0803C170.39 27.0803 169.444 26.6343 168.694 25.7423C167.944 24.8503 167.57 23.6923 167.57 22.2703C167.57 20.7443 167.976 19.5083 168.792 18.5643C169.582 17.6843 170.55 17.2443 171.702 17.2443C172.968 17.2443 173.854 17.6703 174.358 18.5243H174.398V13.1123H176.496V24.3263C176.496 25.2443 176.52 26.0903 176.57 26.8663ZM174.398 22.8903V21.3183C174.398 21.0463 174.378 20.8263 174.34 20.6583C174.222 20.1543 173.968 19.7303 173.582 19.3883C173.192 19.0463 172.722 18.8743 172.18 18.8743C171.398 18.8743 170.786 19.1843 170.336 19.8063C169.89 20.4283 169.664 21.2223 169.664 22.1923C169.664 23.1243 169.878 23.8803 170.308 24.4623C170.762 25.0823 171.374 25.3923 172.14 25.3923C172.828 25.3923 173.378 25.1343 173.796 24.6163C174.2 24.1383 174.398 23.5623 174.398 22.8903Z" fill="white"/>
                            <path d="M194.496 22.0741C194.496 23.5241 194.082 24.7121 193.254 25.6441C192.386 26.6021 191.238 27.0801 189.8 27.0801C188.418 27.0801 187.316 26.6221 186.492 25.7021C185.672 24.7841 185.262 23.6261 185.262 22.2301C185.262 20.7701 185.684 19.5721 186.532 18.6421C187.38 17.7121 188.52 17.2461 189.958 17.2461C191.34 17.2461 192.454 17.7041 193.294 18.6221C194.094 19.5141 194.496 20.6661 194.496 22.0741ZM192.324 22.1421C192.324 21.2721 192.136 20.5261 191.762 19.9041C191.32 19.1521 190.696 18.7761 189.88 18.7761C189.04 18.7761 188.4 19.1521 187.958 19.9041C187.582 20.5261 187.396 21.2841 187.396 22.1801C187.396 23.0501 187.584 23.7961 187.958 24.4181C188.412 25.1701 189.044 25.5461 189.86 25.5461C190.66 25.5461 191.29 25.1641 191.742 24.3981C192.128 23.7641 192.324 23.0121 192.324 22.1421Z" fill="white"/>
                            <path d="M205.766 26.8662H203.672V21.4662C203.672 19.8022 203.04 18.9702 201.77 18.9702C201.148 18.9702 200.646 19.1982 200.258 19.6562C199.87 20.1142 199.676 20.6542 199.676 21.2722V26.8642H197.578V20.1322C197.578 19.3042 197.554 18.4062 197.504 17.4342H199.344L199.442 18.9082H199.5C199.746 18.4502 200.11 18.0722 200.586 17.7702C201.156 17.4182 201.79 17.2402 202.488 17.2402C203.366 17.2402 204.098 17.5242 204.68 18.0942C205.406 18.7922 205.766 19.8342 205.766 21.2182V26.8662V26.8662Z" fill="white"/>
                            <path d="M219.872 19.0078H217.564V23.5878C217.564 24.7518 217.974 25.3338 218.786 25.3338C219.162 25.3338 219.474 25.3018 219.72 25.2358L219.774 26.8258C219.36 26.9818 218.816 27.0598 218.146 27.0598C217.318 27.0598 216.674 26.8078 216.208 26.3038C215.74 25.7998 215.508 24.9518 215.508 23.7618V19.0078H214.13V17.4378H215.508V15.7098L217.562 15.0898V17.4358H219.87V19.0078H219.872Z" fill="white"/>
                            <path d="M230.968 26.8663H228.87V21.5063C228.87 19.8163 228.238 18.9703 226.972 18.9703C226 18.9703 225.336 19.4603 224.972 20.4403C224.91 20.6463 224.874 20.8983 224.874 21.1943V26.8643H222.78V13.1123H224.874V18.7943H224.914C225.574 17.7603 226.52 17.2443 227.746 17.2443C228.614 17.2443 229.332 17.5283 229.902 18.0983C230.612 18.8083 230.968 19.8643 230.968 21.2603V26.8663V26.8663Z" fill="white"/>
                            <path d="M242.414 21.7065C242.414 22.0825 242.386 22.3985 242.336 22.6565H236.05C236.078 23.5885 236.378 24.2985 236.96 24.7905C237.492 25.2305 238.178 25.4505 239.018 25.4505C239.948 25.4505 240.796 25.3025 241.56 25.0045L241.888 26.4605C240.994 26.8485 239.942 27.0425 238.724 27.0425C237.264 27.0425 236.114 26.6125 235.282 25.7525C234.446 24.8925 234.032 23.7385 234.032 22.2905C234.032 20.8685 234.418 19.6845 235.196 18.7405C236.008 17.7325 237.106 17.2285 238.492 17.2285C239.848 17.2285 240.878 17.7325 241.574 18.7405C242.136 19.5405 242.414 20.5305 242.414 21.7065ZM240.414 21.1645C240.43 20.5425 240.292 20.0065 240.008 19.5545C239.644 18.9725 239.09 18.6805 238.34 18.6805C237.656 18.6805 237.098 18.9645 236.672 19.5345C236.324 19.9885 236.118 20.5305 236.05 21.1645H240.414Z" fill="white"/>
                        </svg>    